<svg id="Layer_1" data-name="Layer 1" xmlns="http://www.w3.org/2000/svg" viewBox="0 0 20.2945 18.84899"><defs><style>.cls-1{fill:#231f20;}</style></defs><title>cart</title><path class="cls-1" d="M19.5445,7.2285H16.39361L12.9864,0.4146a0.75009,0.75009,0,1,0-1.34179.6709l3.07129,6.143H5.5782l3.0717-6.143A0.75009,0.75009,0,1,0,7.3081.4146L3.9014,7.2285H0.75a0.75,0.75,0,1,0,0,1.5H0.9073l0.8549,2.9912a0.73274,0.73274,0,0,0,.3809,1.3345l1.6558,5.7949H16.49561l1.65579-5.7949a0.74444,0.74444,0,0,0,.6978-0.7392,0.73663,0.73663,0,0,0-.3165-0.5957l0.8545-2.9908h0.1573A0.75,0.75,0,0,0,19.5445,7.2285ZM15.3638,17.3491H4.9307L3.70661,13.065H16.5879Zm1.65281-5.7841H3.2779L2.4678,8.7285H17.8272Z" transform="translate(0 -0.00011)"/></svg>