<svg id="Layer_1" data-name="Layer 1" xmlns="http://www.w3.org/2000/svg" viewBox="0 0 14.96189 27.71807"><defs><style>.cls-1{fill:#231f20;}</style></defs><title>fb</title><g id="facebook"><path class="cls-1" d="M11.6621,5.1929a6.68153,6.68153,0,0,0,2.6806-.2998,8.11879,8.11879,0,0,0,.6192-2.9893,1.08674,1.08674,0,0,1-.2071-0.3989c-0.0293-.2022-0.2783-0.1948-0.3086-0.398-0.2773-.165-0.457-0.4223-0.7226-0.5981-0.7266-.1616-1.4404-0.335-2.1641-0.4985A13.5556,13.5556,0,0,0,8.97941.1099,6.62058,6.62058,0,0,0,3.7202,2.5015c-0.023.0781-.0034,0.1972-0.105,0.1992C3.041,4.2881,3.4907,6.3218,3.4111,8.2817c0.0986,0.4361.1074,0.9585,0.2041,1.3946a18.82378,18.82378,0,0,1-3.4024.499,3.05507,3.05507,0,0,0-.206,1.6934,15.03414,15.03414,0,0,0,.4131,1.59469,3.53445,3.53445,0,0,0,.8252.498,0.44319,0.44319,0,0,1,.1025.09961c0.5059,0.2676,1.4512.0079,2.2676,0.0996-0.1362,1.9776.2558,3.9151,0,5.6797a2.0109,2.0109,0,0,1,.2075.7979,8.25238,8.25238,0,0,0,.2075,2.6904,2.62576,2.62576,0,0,0-.415,1.794c0.1221,0.0156.1138,0.1572,0.105,0.29879-0.0747.46971,0.643,0.17481,0.5151,0.69821,0.16211,0.4561-.4277.1836-0.4126,0.4981v0.8965a5.96027,5.96027,0,0,0,2.2681.19919c0.9082-.419,2.1875-0.47849,2.7851-1.19629a1.27972,1.27972,0,0,0,1.2383-.1992,2.82121,2.82121,0,0,0,.2051-0.6983,3.31544,3.31544,0,0,1-.1025-0.8965V21.8345c-0.2061-2.293-.0479-4.9385-0.3086-7.1758a9.10256,9.10256,0,0,0,2.5781-.3984,4.8494,4.8494,0,0,0,.5156-1.8946,1.55579,1.55579,0,0,0,.2061-0.9961,2.40108,2.40108,0,0,0,.1035-1.0957c-0.1406-.5952-0.168-1.2998-0.8252-1.395-0.8838-.2353-2.043.5952-2.9912,0.2988,0.0488-1.1342-.293-2.3422,0-3.3881C10.2421,5.6138,10.9423,5.3945,11.6621,5.1929ZM7.8447,9.9756a3.75539,3.75539,0,0,0,.414.6977c0.0791,0.0225.2032,0.003,0.2051,0.1006a10.32268,10.32268,0,0,0,3.0957-.2993,7.46435,7.46435,0,0,1-.5176,2.4917,10.02576,10.02576,0,0,1-1.958.1983,7.406,7.406,0,0,0-.6201.6982,2.25952,2.25952,0,0,1,0,.7969,3.69622,3.69622,0,0,0-.2051.7959v1.4961a1.70144,1.70144,0,0,1-.1035.497V20.937a1.75314,1.75314,0,0,0,.1035.4981v2.9892a1.45505,1.45505,0,0,0,.1026.8965c-0.0703.3643-.4121-0.0205-0.8242,0.09959a7.65683,7.65683,0,0,1-1.5479.40041,2.80827,2.80827,0,0,0,.3106-1.0967c0.0488-.3808-0.3653-0.3115-0.5157-0.498,0.1934-.6436.5625-1.1172,0.7217-1.793,0.1973-.5146.7139-1.2978,0.30961-1.7939a1.03212,1.03212,0,0,0-.82621.3984c-0.0224.0772-.0019,0.1963-0.1025,0.1992-0.0235.0772-.003,0.1963-0.1026,0.1992,0.0098,0.1202-.1513.0616,0,0,0.0225-.0781.002-0.1972,0.1026-0.1992,0.0234-.0771.0019-0.1972,0.1025-0.1992V20.7388a5.70919,5.70919,0,0,0,.82621-1.9932,4.80914,4.80914,0,0,0,.41209-0.9971,1.28677,1.28677,0,0,0,.1045-1.1953,0.95384,0.95384,0,0,0-.9297.6973c-0.3203-.1895.16111-0.4336,0.1045-0.6973,0.1377-.2314.1689-0.5664,0.30861-0.79681,0.20209-.41309.56439-1.30379,0-1.59579a0.65847,0.65847,0,0,0-.72271.4981,1.45485,1.45485,0,0,0-.5156.6982c-0.373-.0703-0.1426-0.72651-0.2061-1.0966a8.53157,8.53157,0,0,0,0-1.1954c-0.5595-.7988-2.0258-0.1054-3.1972-0.2988a2.236,2.236,0,0,1-.1035-1.1953c1.0449-.0879,2.4785.2012,3.1972-0.1992,0.0244-.0781.003-0.1973,0.1035-0.19921A1.78272,1.78272,0,0,0,4.85641,9.7769,17.10046,17.10046,0,0,0,4.9599,6.7876a3.2767,3.2767,0,0,0,.5147-0.5977c0.1123-.955.67281-1.47551,0.7216-2.4921-0.2734.0014-.6074-0.0547-0.6191,0.1992-0.3018-.1143-0.3818.4785-0.5146,0.1992A1.70365,1.70365,0,0,1,5.371,3.0991c0.5987-.4179,1.212-0.8203,1.8565-1.1953,1.7412-.2441,4.6484-0.4487,6.08591.1983,0.05079,0.6162-.28711.854-0.207,1.496H11.5605a30.59915,30.59915,0,0,0-2.9912.9971c-0.2402.0664-.2764,0.3311-0.5156,0.3985a5.915,5.915,0,0,1-.3106.9961C7.663,7.4282,7.875,8.5859,7.8447,9.9756Z" transform="translate(-0.00001 0.00024)"/></g></svg>