<svg id="Layer_1" data-name="Layer 1" xmlns="http://www.w3.org/2000/svg" viewBox="0 0 31.9721 37.3008"><defs><style>.cls-1{fill:#231f20;}</style></defs><title>flower</title><path class="cls-1" d="M15.98581,37.3008A15.98872,15.98872,0,0,0,31.9721,21.3145,15.98743,15.98743,0,0,0,15.98581,37.3008ZM4.6269,16.4302a4.43759,4.43759,0,0,0,6.9536,3.6587l-0.0356.3369a4.44065,4.44065,0,1,0,8.8813,0l-0.0361-.3369a4.3951,4.3951,0,0,0,2.51371.7822,4.43056,4.43056,0,0,0,1.90039-8.4375,4.43268,4.43268,0,1,0-4.4141-7.6558l0.0361-.33741a4.44065,4.44065,0,0,0-8.8813,0L11.5805,4.7778a4.39268,4.39268,0,0,0-2.5132-.7812,4.43037,4.43037,0,0,0-1.9008,8.437A4.41977,4.41977,0,0,0,4.6269,16.4302Zm11.35891-8.437a4.4404,4.4404,0,1,1-4.44091,4.4404A4.44188,4.44188,0,0,1,15.98581,7.9932ZM0,21.3145A15.988,15.988,0,0,0,15.98581,37.3008,15.98734,15.98734,0,0,0,0,21.3145Z"/></svg>