<svg id="Layer_1" data-name="Layer 1" xmlns="http://www.w3.org/2000/svg" viewBox="0 0 21.76871 21.334"><defs><style>.cls-1{fill:#231f20;}</style></defs><title>insta</title><g id="instagram"><path class="cls-1" d="M21.7657,12.1455c-0.0127-2.3945-.3438-4.788-0.3028-7.1347-0.0234-.7881-0.0859-1.53521-0.1523-2.2783A5.28645,5.28645,0,0,1,21.1582,1.67a8.80326,8.80326,0,0,1-.456-0.8355A7.66666,7.66666,0,0,0,18.958.6075c-0.65719-.0264-1.2539-0.1153-1.8994-0.15291C15.1231,0.3535,13.086.3789,11.0625,0.3789A43.24875,43.24875,0,0,1,5.3672,0H3.1656a0.60231,0.60231,0,0,1-.2271.0762A9.24531,9.24531,0,0,0,1.34381.3794,2.808,2.808,0,0,1,.6607.68359a2.95093,2.95093,0,0,0-.607.37891c-0.186.2119,0.1846,0.4512,0,.6075V2.5811a1.727,1.727,0,0,1,.0752.8349V4.4033C0.1123,5.6841.2627,6.8008,0.2051,8.1231a38.70138,38.70138,0,0,1,.0762,9.4131,14.10753,14.10753,0,0,1,.4551,1.7461,7.60821,7.60821,0,0,0,.6831,1.5195,6.73315,6.73315,0,0,0,1.8979.2285,4.338,4.338,0,0,0,1.1397.3037c2.8432-.2099,5.4961-0.1543,8.42671-0.2285a34.60508,34.60508,0,0,0,8.27539-.2275,1.77331,1.77331,0,0,0,.22761-0.7598,2.22433,2.22433,0,0,1,.22749-0.7588C21.7471,16.9668,21.7793,14.5723,21.7657,12.1455ZM8.7842,5.9209a9.42612,9.42612,0,0,1,2.4287-.3042,10.79189,10.79189,0,0,1,1.8975.4556c0.1162,0.1841-.2432.5469,0.1533,0.6836V6.8321c0.0586,0.0166.1494,0.0019,0.1514,0.0761a1.91808,1.91808,0,0,1,1.0635.3789c0.4501,0.0547.5361,0.4756,1.1376,0.3799a2.17724,2.17724,0,0,0-.0751.835,11.87827,11.87827,0,0,1,.30271,4.2519,1.85583,1.85583,0,0,0-.30271.68269,9.80535,9.80535,0,0,1-.836,1.06251,1.08072,1.08072,0,0,1-.4541.5332,0.89479,0.89479,0,0,1-.457.5302,0.97233,0.97233,0,0,1-.834-0.0761,3.43833,3.43833,0,0,0-1.2148.6074c-0.8165-.0957-1.6485-0.1748-2.4297-0.3037a1.9406,1.9406,0,0,0-.835-0.3047,1.99172,1.99172,0,0,0-.8359-0.4551,3.79147,3.79147,0,0,0-.4551-0.2285,2.32125,2.32125,0,0,0-.4556-0.2285,11.71929,11.71929,0,0,1-.5317-1.0616,5.54767,5.54767,0,0,1-.4551-1.2148A13.41289,13.41289,0,0,1,6.1265,8.501c0.3462-.5908.7788-1.0937,1.1382-1.6699a0.30084,0.30084,0,0,0,.3799-0.3042,2.53345,2.53345,0,0,0,.6836-0.0752A1.7797,1.7797,0,0,0,8.7842,5.9209ZM7.1133,3.1875a3.26993,3.26993,0,0,1-.0752-1.062,2.84262,2.84262,0,0,1,.30371-0.5317C7.3389,1.52,7.2491,1.5352,7.19,1.51759a1.00365,1.00365,0,0,1,.8344,0C8.1563,2.0547,7.67,1.9727,7.4932,2.2012c0.0107,0.1675.3223,0.0322,0.4561,0.0762,0.0293,0.8535-.0586,1.4961,0,2.2016H7.4932c-0.0068.2344,0.2285,0.2261,0.4561,0.2281a2.67931,2.67931,0,0,0,.0751.6074,2.95039,2.95039,0,0,1-1.062.0752C6.8594,4.7959,7.1983,4.0147,7.1133,3.1875ZM6.4307,1.5938a0.11579,0.11579,0,0,1,.1514.0762,1.097,1.097,0,0,1-.0757.91059A2.4375,2.4375,0,0,1,6.4307,1.5938ZM6.5826,3.41559A0.4356,0.4356,0,0,1,6.4307,2.96,0.439,0.439,0,0,1,6.5826,3.41559Zm0,1.36671c-0.0582.1386-.0816-0.045-0.0757-0.1524C6.565,4.4917,6.5879,4.6758,6.5826,4.7823Zm-0.1519.2285a0.76923,0.76923,0,0,1,.2275.227C6.6494,5.4307,6.375,5.417,6.2784,5.3145,6.3179,5.2022,6.3916,5.1221,6.4307,5.0108ZM4.0772,3.795c0.0058-.108.0127-0.21441-0.0762-0.2281-0.0727-.7329.1299-1.4145,0-1.9731a3.41368,3.41368,0,0,1,1.1387-.0767V2.6558a0.48864,0.48864,0,0,1-.37889.0767C4.7066,3.0127,5.0845,2.8638,5.1397,3.0362A9.30256,9.30256,0,0,0,5.292,5.4649c-0.5654-.0586-0.90619.1069-1.4424,0.0761,0.0967-.6123-0.0185-1.4345.5308-1.5937A0.81251,0.81251,0,0,0,4.0772,3.795Zm-0.5313,0c-0.20409.0209-.2168-0.5342-0.07709-0.6075C3.7969,3.1939,3.71781,3.6885,3.5459,3.795Zm-0.1523.9873a3.66913,3.66913,0,0,0,.07521-0.68271C3.6973,4.1123,3.729,4.8692,3.3936,4.7823Zm0.228-2.0498c-0.2632.0537-.2729-0.2662-0.15279-0.37991C3.7315,2.2993,3.74081,2.6192,3.6216,2.7325Zm0-1.1387a0.48791,0.48791,0,0,1-.0757.3042,0.78123,0.78123,0,0,1-.2285-0.2285C3.34181,1.5664,3.50781,1.6065,3.6216,1.5938ZM3.3936,5.3145c0.1484-.0308.1103,0.3447-0.0762,0.227A0.361,0.361,0,0,0,3.3936,5.3145ZM2.71,1.5938c0.02881,0.2593-.4385.3203-0.3789,0H2.71ZM1.7232,1.67a3.52081,3.52081,0,0,1-.3789.3789C1.1299,1.8789,1.42781,1.5811,1.7232,1.67Zm-0.4556.7587c0.2256-.205.4507-0.41011,0.6836-0.6074a0.58227,0.58227,0,0,1,.0762-0.2275H2.2559c0.1016,0.38079-.2607.2959-0.3047,0.5312a0.6228,0.6228,0,0,1-.0752.2271,4.67,4.67,0,0,1,.0752.9878,1.79325,1.79325,0,0,1-.60739.227C1.3672,3.1387,1.21,2.89259,1.2676,2.4287ZM1.34381,5.6934V4.09959C1.5391,3.9151,1.73981,3.7354,1.9512,3.5674c0.2949,0.4893.1787,1.3916,0.4551,1.8975A8.80519,8.80519,0,0,1,1.34381,5.6934ZM19.5645,16.7774a21.35322,21.35322,0,0,1-.3789,2.8086c-2.8897.123-6.0195,0.0048-8.88279,0.1533-0.19921.0449-.27351-0.0313-0.22851-0.2285a4.45388,4.45388,0,0,1-.5313.2285,1.24,1.24,0,0,0,.1514-1.291c-0.7969.0127-.7969,0.82129-1.1377,1.291-0.6856-.05271-1.1367.1269-1.8228,0.0752,0.1802-.7051.7495-1.0215,0.9107-1.7451-0.3946-.54981-0.9893.1377-1.2139,0.455-0.2036.4805-.5566,0.8096-0.7598,1.2901H4.6846c0.2383-.4688.4893-0.9258,0.7588-1.3662a5.13222,5.13222,0,0,0,.6826-1.3672c-0.15719-.2803-0.4199-0.0293-0.6826,0-0.1231.1816-.2725,0.3349-0.3799,0.5312a8.6291,8.6291,0,0,0-.6836,1.1397c-0.1806.208-.3349,0.0029-0.5303,0.2265-0.3886.2715-.5805,0.7364-0.9882,0.9873-0.1739-.0595.039-0.3564,0.1533-0.3798a0.90314,0.90314,0,0,1,.0752-0.6075,2.41493,2.41493,0,0,1,.37891-0.9101c0.11909-.7422.52149-1.1992,0.68409-1.8984a1.93481,1.93481,0,0,0-.9878.9873,7.28954,7.28954,0,0,0-.6826,1.291,1.71819,1.71819,0,0,1-.0762-0.836c0.1221-.5859.2983-1.1191,0.3799-1.7461a2.61472,2.61472,0,0,0,.228-0.8339,0.71348,0.71348,0,0,0-.0767-0.7608,0.53578,0.53578,0,0,0-.455.3037c-0.1919-.0322-0.1934.5059-0.3038,0.3037-0.04489-2.5869-.4511-4.8125-0.456-7.4384a1.9433,1.9433,0,0,0-.2275-0.6846c1.6289,0.0283,3.121.0908,4.7832,0.2285a3.44561,3.44561,0,0,1-.3042.3789,1.88186,1.88186,0,0,0-.3785.3037,12.66858,12.66858,0,0,0-.6074,6.1504,4.39058,4.39058,0,0,0,.9863,1.4414c0.9068,0.4854,1.6348,1.1494,2.5059,1.6709a14.14686,14.14686,0,0,0,5.541,0,4.31745,4.31745,0,0,0,.6846-0.3799c1.3642-1.24221,2.7529-2.459,2.9609-4.8593V10.3233A4.93087,4.93087,0,0,0,15.92,6.6797a3.8592,3.8592,0,0,1,1.6699.0762,5.7967,5.7967,0,0,0,.6836,0,8.76608,8.76608,0,0,1,1.44331,0,5.75054,5.75054,0,0,1,.22759.7598c-0.06159,1.6835-.1924,3.2998-0.1524,5.08689,0.1026,0.45411.127,0.98631,0.2285,1.44141A16.9698,16.9698,0,0,1,19.5645,16.7774ZM19.9434,5.6172c-0.6387-.1201-1.2324-0.2842-1.8975-0.3789,0.0723-.3335.79891-0.0102,0.9873-0.2275,0.3848-.2227.295-0.9204,0.3037-1.5186a5.02923,5.02923,0,0,0,.0762-1.0635c-0.40129-.95111-1.7832-0.4209-2.8857-0.455a5.97314,5.97314,0,0,0-.3037,2.6567c0.1689,0.4897,1.0244.2925,1.5185,0.4561-0.1396.3315-.6885,0.05709-0.9873,0.0756-0.2959-.083-0.707-0.0517-0.9863-0.1513-2.2852.0776-4.2842,0.0039-6.5293,0.1513a17.19605,17.19605,0,0,0-.0762-3.64451h3.1123c-0.3437.36431-.9121,0.50681-1.29,0.835a3.15035,3.15035,0,0,0-1.1387.91111,0.99692,0.99692,0,0,0,.7588-0.3789c0.3555-.07421.4795-0.3809,0.835-0.4551a5.89732,5.89732,0,0,1,1.6699-.91211,3.53653,3.53653,0,0,1,.9873.07671c1.2832,0.00729,2.456.1264,3.7959,0.0757a13.01707,13.01707,0,0,1,1.9736.3037,7.11422,7.11422,0,0,1,.3047.9111A25.584,25.584,0,0,1,19.9434,5.6172ZM14.0987,1.898c0.1103-.0479-0.0088-0.0923,0,0h0Zm0,0a3.25706,3.25706,0,0,0-1.3672.6821A3.30909,3.30909,0,0,0,14.0987,1.898Zm1.0625,0.6069c0.1103-.0474-0.0078-0.0918,0,0h0Zm-1.7461.91069a5.96428,5.96428,0,0,0,1.7461-.91069,7.1033,7.1033,0,0,0-.9873.3789A3.723,3.723,0,0,0,13.4151,3.41559ZM12.7315,2.5801c-0.1104.0474,0.0068,0.0923,0,0h0Zm-0.6826.6074c0.1103-.04591-0.0078-0.0918,0,0h0Zm-0.0752.0762c0.0634,0.0142.0703-.0303,0.0752-0.0762C11.9844,3.1739,11.9766,3.2178,11.9737,3.2637Zm-0.0772.0762c0.0645,0.0136.07231-.0298,0.0772-0.0762C11.9073,3.2505,11.9014,3.293,11.8965,3.3399Zm-0.834.6074a2.05562,2.05562,0,0,0,.834-0.6074A2.036,2.036,0,0,0,11.0625,3.9473Zm2.2764,0.98729a6.6779,6.6779,0,0,0,1.2148-.53129,4.588,4.588,0,0,0,.9874-0.75971,4.11016,4.11016,0,0,0-1.2159.53121A7.441,7.441,0,0,0,13.3389,4.93459ZM11.0625,3.9473c-0.3164-.0732-0.0156.2275,0,0h0Zm-0.5332.3794c0.02151,0.0215.1153-.0366,0.0762-0.0767C10.585,4.2295,10.4903,4.2871,10.5293,4.3267Zm2.8096,0.60789c-0.1103.04691,0.0068,0.09131,0,0h0ZM12.1993,6.7559a3.34563,3.34563,0,0,0-.9864-0.3789,5.31974,5.31974,0,0,0-1.74609.2285C9.1631,6.7564,8.8594,6.9092,8.5567,7.0591a4.07528,4.07528,0,0,1-.7598.5317,1.589,1.589,0,0,1-.6836.6075,0.47647,0.47647,0,0,1-.3037.3789,1.08834,1.08834,0,0,1-.227.3808c-0.0069.1202,0.0356,0.2901-.0757,0.3028A18.36162,18.36162,0,0,0,7.19,13.4375a4.97292,4.97292,0,0,0,1.4419,1.29009,6.32448,6.32448,0,0,0,2.12591.53121,3.19133,3.19133,0,0,1,.91119-0.07621,5.086,5.086,0,0,0,2.8096-1.44139,1.581,1.581,0,0,1,.455-0.68361c-0.2539-.67089.293-1.09759,0.4551-1.59569a8.51533,8.51533,0,0,0-.6074-3.415,3.96517,3.96517,0,0,0-1.3662-1.1387c-0.0586-.0175-0.1504-0.0029-0.1514-0.07661A1.35621,1.35621,0,0,0,12.1993,6.7559ZM8.7842,11.083a0.61877,0.61877,0,0,1-.1523-0.3789C8.8877,10.626,8.75,10.9405,8.7842,11.083Zm0.0752,0.3047c0.041-.1172.0791-0.0058,0.0762,0.0752C8.8955,11.5801,8.8565,11.4678,8.8594,11.3877ZM9.3155,9.3369c0.0146-.0859.0752-0.0419,0.0752,0C9.377,9.4239,9.3155,9.3799,9.3155,9.3369Zm1.6699-2.125a1.03133,1.03133,0,0,0,.0771.836C10.75781,8.0088,10.4893,7.1602,10.9854,7.2119Zm0.3799,3.9473c-0.0401-.0381.0547-0.0967,0.0761-0.0762C11.4805,11.1221,11.38681,11.1807,11.3653,11.1592Zm0.7588,2.8848c0.0341-.10941.0664,0.0078,0.1523,0A0.0771,0.0771,0,0,1,12.1241,14.044Zm2.2011-2.5811c-0.23339-.0566-0.1445.208-0.3789,0.1524a1.5694,1.5694,0,0,1,.22851-0.4551C14.3086,11.1787,14.3467,11.2901,14.3252,11.4629ZM13.1875,7.667a2.7495,2.7495,0,0,1,.6065.3809,1.95456,1.95456,0,0,0,.3799.5293,20.56971,20.56971,0,0,1,.1513,2.3535c-0.2568.0986-.43839,0.2705-0.6826,0.38089a4.44125,4.44125,0,0,1-1.8974-.45609c-0.1709-.2588-0.3555-0.50491-0.5323-0.7588V9.0342a4.20058,4.20058,0,0,0,.4561-0.6074,0.56107,0.56107,0,0,0,.4541-0.6074,0.3759,0.3759,0,0,1-.0752-0.2286,1.95486,1.95486,0,0,1,.37891.2286A6.04107,6.04107,0,0,1,13.1875,7.667Z" transform="translate(0.00014)"/></g></svg>