<svg id="Layer_1" data-name="Layer 1" xmlns="http://www.w3.org/2000/svg" viewBox="0 0 59.999 59.6197"><defs><style>.cls-1{fill:#231f20;}</style></defs><title>lego</title><path class="cls-1" d="M0.00051,43.6812L27.439,59.6148V36.26909l-27.43849-15.94V43.6812ZM51.3462,12.43709V14.8902c0,1.81689-3.458,3.2895-7.7305,3.2895-4.2656,0-7.7266-1.47261-7.7266-3.2895V10.8316h0.0245c0.2597,1.7143,3.6035,3.0727,7.7021,3.0727,4.2725,0,7.7295-1.4741,7.7295-3.2846,0-1.8194-3.457-3.28861-7.7295-3.28861-0.3389,0-.6748.01021-1.0019,0.02981L37.6391,4.4727V7.5586c0,1.8169-3.4541,3.2896-7.72259,3.2896A12.648,12.648,0,0,1,23.4839,9.3809a3.941,3.941,0,0,0-.73239-0.5859,1.80109,1.80109,0,0,1-.565-1.2364V4.5723L17.3794,7.3638c-0.3467-.0166-0.6963-0.03271-1.0537-0.03271-4.2666,0-7.7271,1.46921-7.7271,3.28861,0,1.8105,3.4605,3.2846,7.7271,3.2846,4.0991,0,7.44581-1.3584,7.7046-3.0727h0.0219v4.0586c0,1.81689-3.455,3.2895-7.7265,3.2895-4.2666,0-7.7271-1.47261-7.7271-3.2895V12.4698L2.647,15.9214,30.1782,31.9078,57.5288,16.0254ZM37.7026,22.6036c0,1.8169-3.4599,3.2866-7.7265,3.2866-4.26859,0-7.729-1.4697-7.729-3.2866V18.5445H22.271c0.2598,1.7148,3.603,3.0757,7.7051,3.0757,4.1005,0,7.4433-1.3609,7.705-3.0757h0.0215v4.0591h0ZM32.5571,36.47609V59.6197L59.99951,43.6812V20.5376ZM29.916,6.5723c4.269,0,7.7231-1.4697,7.7231-3.2856C37.6391,1.4722,34.185,0,29.916,0c-4.26949,0-7.72949,1.4722-7.72949,3.2867,0,1.8159,3.46,3.2856,7.72949,3.2856" transform="translate(-0.00051)"/></svg>