<svg id="Layer_1" data-name="Layer 1" xmlns="http://www.w3.org/2000/svg" viewBox="0 0 32 21"><defs><style>.cls-1{fill:#333;}</style></defs><title>letter</title><path id="mail" class="cls-1" d="M28,0H4A4.00082,4.00082,0,0,0,0,4V17a4.00018,4.00018,0,0,0,4,4H28a4.00018,4.00018,0,0,0,4-4V4A4.00082,4.00082,0,0,0,28,0ZM2,5.25L8.999,10.5,2,15.75V5.25ZM30,17a2.00259,2.00259,0,0,1-2,2H4a2.00169,2.00169,0,0,1-2-2l7.832-5.875,4.36819,3.27731a2.99914,2.99914,0,0,0,3.5986,0L22.168,11.125,30,17h0Zm0-1.25L23,10.5l7-5.25v10.5ZM17.19919,13.60161a1.99754,1.99754,0,0,1-2.3994,0L10.665,10.5,9.832,9.875,2,4.001V4A2.002,2.002,0,0,1,4,2H28a2.00292,2.00292,0,0,1,2,2Z"/></svg>