<svg id="Layer_2" data-name="Layer 2" xmlns="http://www.w3.org/2000/svg" viewBox="0 0 24.8287 24.33249"><title>phone</title><g id="UrwUhy"><path d="M17.3209,24.33249H16.20561A17.24156,17.24156,0,0,1,5.0953,18.5601,19.3926,19.3926,0,0,1,0,6.8169V5.459A3.36718,3.36718,0,0,1,1.0669,3.373a4.50227,4.50227,0,0,1,2.522-1.5532,3.19394,3.19394,0,0,1,2.232,1.0659,7.54368,7.54368,0,0,1,.7753,2.3785A8.81857,8.81857,0,0,1,7.0811,7.981c-0.1763,1.1958-1.7642,1.7031-2.231,2.5717a16.65247,16.65247,0,0,0,7.4717,8.3452c0.8467-.4648,1.59481-1.8642,2.7666-1.8916a5.11606,5.11606,0,0,1,1.4063.3399c0.4765,0.1426.8906,0.3262,1.3105,0.4844a5.73343,5.73343,0,0,1,2.378,1.21289,3.51194,3.51194,0,0,1,.581,2.23141C20.5709,22.5083,18.53761,23.8774,17.3209,24.33249Z"/></g><path d="M12.5289,1.5278a10.7702,10.7702,0,0,1,10.7705,10.771h1.5293A12.299,12.299,0,0,0,12.5289,0V1.5278Z"/><path d="M12.5289,9.3271v1.5518a1.42048,1.42048,0,0,1,1.4209,1.4199h1.5527A2.97163,2.97163,0,0,0,12.5289,9.3271Z"/><path d="M12.5289,6.2461a6.05425,6.05425,0,0,1,6.0556,6.0537h1.5879a7.642,7.642,0,0,0-7.6435-7.6406V6.2461Z"/></svg>