<svg id="Layer_1" data-name="Layer 1" xmlns="http://www.w3.org/2000/svg" viewBox="0 0 32.666 32.4863"><defs><style>.cls-1{fill:#231f20;}</style></defs><title>present</title><path class="cls-1" d="M2.89459,32.4863h12.5039V18.5761H2.89459V32.4863ZM31.07719,8.8662h-7.335a10.87034,10.87034,0,0,0,1.3965-.8447,5.0554,5.0554,0,0,0,2.4199-3.9991,3.8566,3.8566,0,0,0-1.3593-2.9013A4.5835,4.5835,0,0,0,23.18359,0a5.96542,5.96542,0,0,0-3.3203,1.0693,10.61928,10.61928,0,0,0-3.4238,4.0674c-0.0391.0791-.0781,0.1572-0.1152,0.2363a12.99893,12.99893,0,0,0-1.0411-1.792,9.66183,9.66183,0,0,0-2.497-2.5107A5.99726,5.99726,0,0,0,9.46389.0009a4.651,4.651,0,0,0-3.1553,1.295,4.34557,4.34557,0,0,0-1.4121,3.1347,4.08912,4.08912,0,0,0,.6494,2.1875,6.54411,6.54411,0,0,0,2.6328,2.2481H1.59089A1.59082,1.59082,0,0,0,0,10.456v5.8975H15.39649V8.8652h1.8731v7.4883H32.666V10.456a1.58656,1.58656,0,0,0-1.58881-1.5898M8.71489,6.5273a3.75854,3.75854,0,0,1-1.2198-1.1348,1.77886,1.77886,0,0,1-.2958-0.9628,2.05347,2.05347,0,0,1,.6914-1.461,2.36707,2.36707,0,0,1,1.5625-.667h0.0127a3.68328,3.68328,0,0,1,2.0459.6826,8.35824,8.35824,0,0,1,2.6445,3.1866,10.44253,10.44253,0,0,1,.789,2.0869,14.85894,14.85894,0,0,1-6.2304-1.7305M19.252,4.9004a7.37522,7.37522,0,0,1,1.88669-1.9161,3.68609,3.68609,0,0,1,2.0469-.6826h0.0058a2.30485,2.30485,0,0,1,1.4942.5498,1.56363,1.56363,0,0,1,.5732,1.1709A2.81724,2.81724,0,0,1,23.792,6.1543a15.8419,15.8419,0,0,1-6.12691,2.2646A10.56758,10.56758,0,0,1,19.252,4.9004M17.27149,32.4863h12.5059V18.5761H17.27149V32.4863Z" transform="translate(0 0)"/></svg>