<svg id="Layer_1" data-name="Layer 1" xmlns="http://www.w3.org/2000/svg" viewBox="0 0 54.1563 23.1831"><title>rocket</title><path d="M40.3116,5.7115A48.13421,48.13421,0,0,0,27.9522,4.0459a46.41033,46.41033,0,0,0-7.71.6226L13.458,0,0.002,0.0054,5.8125,6.1895h8.44731A21.8147,21.8147,0,0,0,7.501,9.7041L7.503,13.481a24.1058,24.1058,0,0,0,6.9306,3.5176l-8.623-.0049L0,23.1812l13.4551,0.0019,6.8164-4.69231a44.32917,44.32917,0,0,0,7.6807.64841,48.26085,48.26085,0,0,0,12.3603-1.667,10.61885,10.61885,0,0,1-1.9179-5.877A10.5958,10.5958,0,0,1,40.3116,5.7115Z"/><path d="M43.7344,6.7456a7.8415,7.8415,0,0,0-1.9648,4.8399,7.80021,7.80021,0,0,0,1.9677,4.8467,48.52263,48.52263,0,0,0,10.419-4.8409A48.58139,48.58139,0,0,0,43.7344,6.7456Z"/></svg>