<svg id="Layer_1" data-name="Layer 1" xmlns="http://www.w3.org/2000/svg" viewBox="0 0 148.0499 72.70773"><defs><style>.cls-1{fill:#fff;}</style></defs><title>logo-4</title><g id="Layer_2" data-name="Layer 2"><path d="M143.165,31.397a38.98832,38.98832,0,0,1-4.6572,2.7768,17.32907,17.32907,0,0,0-.5908-5.1269c0.0508-.333.1025-0.667,0.1455-1.002,0.375-3.0049.6563-7.1221-2.0039-9.2241a2.45722,2.45722,0,0,0-1.9219.2739,4.56814,4.56814,0,0,0-.4961-0.4145q-0.123-.3633-0.2285-0.7354a0.38844,0.38844,0,0,0-.3603-0.2148c0.2851-.3828.2627-0.8179-0.419-1.0918-0.3779-.1524-0.7588-0.2871-1.1426-0.4131-0.0673-.0723-0.1269-0.0962-0.17179-0.0581l-0.00591.0029a22.22021,22.22021,0,0,0-2.8594-.7051,5.10244,5.10244,0,0,1,.5518-1,5.04605,5.04605,0,0,1,.4287-0.4389c0.0625-.0572.125-0.1109,0.1885-0.1651,0.0322-.0268.0527-0.0459,0.06931-0.061,0.01949-.0137.04489-0.0337,0.084-0.062,0.37889-.2876.84569-0.8648,0.22069-1.2017a2.1028,2.1028,0,0,0-2.0078.2378,6.5655,6.5655,0,0,0-2.0918,2.3608,50.06613,50.06613,0,0,0-6.07809-.0776,0.77467,0.77467,0,0,0,.14059-0.25c0.1836-.5849-0.9082-0.5249-1.1875-0.4883q-2.34375.30765-4.6885,0.604c1.3672-3.7729,3.083-8.5781,1.001-12.2636-1.1895-2.1065-3.9063-2.5791-6.0977-2.6524a13.71253,13.71253,0,0,0-7.0361,1.6363c-4.7627,2.6176-7.1103,7.7099-8.21,13.1381a1.8378,1.8378,0,0,0-2.6445.4678c-0.125.3198-.2295,0.645-0.3281,0.9722a1.45589,1.45589,0,0,0-.3447.6367c-0.0147.0561-.0264,0.1108-0.0411,0.167-0.06539.0019-.1308,0.0049-0.1962,0.0073,0.0205-.1045.041-0.207,0.0644-0.31a0.6831,0.6831,0,0,0,.2793-0.3663c0.5742-2.2959,1.1563-4.5878,1.9492-6.8198,0.2686-.7563-2.5117-0.3989-2.8047.4258-0.4238,1.1929-.7851,2.4033-1.1191,3.6221a0.90717,0.90717,0,0,0-.4258.3261c-0.0176.0337-.0312,0.0699-0.0469,0.104a0.90259,0.90259,0,0,0-.4668-0.1782v-0.959c0-.4321-2.8222-0.0341-2.8222.7569v1.5683a2.33649,2.33649,0,0,0-.4727.2657c-0.0625.0571-.12689,0.1142-0.1894,0.1723a0.37423,0.37423,0,0,0-.1201.2446,0.68995,0.68995,0,0,1-.0225.0782,0.68827,0.68827,0,0,1-.0527.0659,0.31179,0.31179,0,0,0-.0264.4673,1.13257,1.13257,0,0,0,.7373.1592c0.0488-.0025.0977-0.0074,0.1465-0.0113v0.4678c-0.22659-.001-0.4502-0.0029-0.6748-0.0059l-0.4112-.0507c-0.0214-.3853-0.6757-0.4522-1.3515-0.3282a0.53868,0.53868,0,0,0,0-.1479c-0.1016-.5952-0.1738-1.1919-0.2295-1.7901a3.098,3.098,0,0,0,.6807-0.3129,0.55086,0.55086,0,0,0,.3271-0.4302V13.852c0-.1801-0.4111-0.2041-0.499-0.208a2.80891,2.80891,0,0,0-.5889.041c-0.0752-1.3051-.081-2.6152-0.081-3.9253,0-.8398-2.8243-0.3149-2.8223.7574a51.5523,51.5523,0,0,0,.1924,5.3427,2.437,2.437,0,0,0-.2705.0093V14.3369c0-1.0449-1.2969-1.2197-2.1465-.8091a0.97092,0.97092,0,0,0,.3701-1.0386,30.28265,30.28265,0,0,1-.9736-4.2871c-0.1885-1.394-3.0176-.6772-2.8247.7559a30.20767,30.20767,0,0,0,.9751,4.2871c0.2353,0.8281,1.3378.8887,2.10351,0.5098a0.99337,0.99337,0,0,0-.37311.7602V15.145a1.649,1.649,0,0,0-.7695-0.1602,1.24545,1.24545,0,0,0-1.3999,1.4771c-0.1641-.0269-0.3272-0.0537-0.4907-0.083a14.099,14.099,0,0,1-.7144-3.8301c-0.02-.9419-1.27-1.0488-2.1079-0.6719a0.57018,0.57018,0,0,0-.0488-0.1679,13.00863,13.00863,0,0,1-.7803-2.5332c-0.332-1.3496-3.1577-.6006-2.8228.7563a19.65826,19.65826,0,0,0,.5191,1.898c-0.0181.0048-.0391,0.0088-0.0562,0.0136a2.65382,2.65382,0,0,0-.854.3872c-0.832.0791-1.8281,0.565-1.7519,1.208,0.0581,0.4781.1308,0.9532,0.209,1.4273q-0.81885.1362-1.6392,0.2598a11.88286,11.88286,0,0,1-.6177-2.4429c-0.1313-.9243-1.5551-0.854-2.332-0.2603A22.544,22.544,0,0,0,57.416,6.6621c-2.6211-3.439-7.0971-4.6133-11.2422-3.794a8.97148,8.97148,0,0,0-5.0429,2.646,5.93663,5.93663,0,0,0-1.17,4.8047,19.124,19.124,0,0,0,1.584,5.9761,2.467,2.467,0,0,0-.9487.1392c-0.2832.1167-.561,0.248-0.833,0.3881-1.9395.0289-3.8774,0.0186-5.8032-.0703-4.1792-.1938-8.3008-0.8598-12.4971-0.7422a1.37244,1.37244,0,0,0-1.4648,1.2623,4.31408,4.31408,0,0,0-2.1431,2.2871,53.97775,53.97775,0,0,0-5.335-3.211c-0.6889-.351-3.2998.7071-2.2851,1.2241a53.00918,53.00918,0,0,1,5.2783,3.2159,2.18654,2.18654,0,0,0,1.8418-.0703c0.0298-.0118.0898-0.0386,0.165-0.0767a9.71837,9.71837,0,0,0,.2408,4.4927,0.56365,0.56365,0,0,0,.1723.27,9.3931,9.3931,0,0,0-.0073,1.0151c-0.001.0552-.001,0.1089-0.002,0.1651a1.2031,1.2031,0,0,0-.7597.8388,37.366,37.366,0,0,0-.3052,4.229,1.09036,1.09036,0,0,0-.4849.7984,49.93454,49.93454,0,0,0,.4668,9.9502,72.70433,72.70433,0,0,0,1.1724,7.998q0.0864,0.624.167,1.25a9.6887,9.6887,0,0,0-.2373,3.4815c-0.8809.1709-1.729,0.8662-1.2329,1.6172a9.10013,9.10013,0,0,0,2.6059,2.64939,2.30525,2.30525,0,0,0-1.8711.55471c-0.8178.8085-1.7148,1.5312-2.5327,2.3388a0.58882,0.58882,0,0,0,.2891,1.0781,2.30234,2.30234,0,0,0,1.9966-.5351c0.8173-.8076,1.7153-1.5313,2.5332-2.3389a0.63509,0.63509,0,0,0,.2041-0.7304c3.2099,1.7343,7.2348,1.2695,11.1137.9423a34.53106,34.53106,0,0,0-2.1699,4.9971c-0.2617.7188,2.5069,0.3731,2.8013-.4355a33.30694,33.30694,0,0,1,2.103-4.8955c3.7407,0.1171,7.479.122,11.2149,0.0507a1.07756,1.07756,0,0,0,.7461.336,34.47218,34.47218,0,0,0,9.6879-.69831c4.7891-.22949,9.5767-0.52539,14.3658-0.80949,7.5273-.1866,15.0556-0.3467,22.5869-0.3194,0.09961,0.1084.2041,0.21489,0.3144,0.3174a1.3059,1.3059,0,0,0,.9785.3301c0.0625,0.0088.129,0.0156,0.1993,0.0185,0.7138,0.0362,1.4277.08789,2.1406,0.1455a1.82292,1.82292,0,0,0,.5596.0459H96.582c0.7813,0.06649,1.5625.1407,2.3457,0.2081a1.14559,1.14559,0,0,0,.792.3603c3.80371,0.25,7.6123.5225,11.4229,0.70309a1.05,1.05,0,0,0,.8203.34381c7.0664,0.0596,15.2773,2.8037,21.5586-1.7363,0.5-.3614.2725-0.877-0.2647-0.9844a1.92818,1.92818,0,0,0-.3251-0.0332,0.49114,0.49114,0,0,0,.0224-0.04491,60.73872,60.73872,0,0,0,2.94431-8.55279,1.078,1.078,0,0,0,.64649-0.8594,34.41714,34.41714,0,0,1,.3711-3.6386q0.249-1.3272.44141-2.66021c0.38679-2.16989.80569-4.36719,1.01759-6.54149a50.093,50.093,0,0,0,6.6221-3.8188C146.5625,31.417,144.2129,30.6509,143.165,31.397ZM87.835,16.3511a1.14488,1.14488,0,0,0-.1338.123q0.10831-.468.2285-0.9341c0.0352,0.001.0723,0.001,0.1103,0C87.9727,15.81,87.90241,16.081,87.835,16.3511Z" transform="translate(-0.00072 0.0011)"/><path d="M63.2612,12.626a1.03111,1.03111,0,0,0,.753.2168,2.94322,2.94322,0,0,0,1.1059-.2247c0.4038-.166,1.1011-0.559.77-1.0703-0.3632-.562-0.6093-1.1899-0.9751-1.7539a1.03367,1.03367,0,0,0-.7539-0.2168,2.92175,2.92175,0,0,0-1.1049.2256c-0.4043.1651-1.1011,0.5581-.7701,1.0694C62.6489,11.4341,62.896,12.063,63.2612,12.626Z" transform="translate(-0.00072 0.0011)"/><path d="M20.6831,10.9072a1.32361,1.32361,0,0,0,1.648.5039c0.4721-.1269,1.3901-0.6162,1.1748-1.2602a4.65513,4.65513,0,0,0-.8931-1.7798,1.70533,1.70533,0,0,0-1.9019-.1514c-0.4121.1904-1.1767,0.8384-.6948,1.3491A3.09085,3.09085,0,0,1,20.6831,10.9072Z" transform="translate(-0.00072 0.0011)"/><path d="M30.6602,13.895c0.8427,0,3.0727-1.2759,1.186-1.2759C31.0029,12.6191,28.772,13.895,30.6602,13.895Z" transform="translate(-0.00072 0.0011)"/><path d="M122.5625,12.2739a2.30181,2.30181,0,0,0,1.0547-.0591,2.148,2.148,0,0,0,.9414-0.477,5.0583,5.0583,0,0,0,.9609-1.1778,0.45955,0.45955,0,0,0-.0039-0.5869,1.09949,1.09949,0,0,0-.7636-0.2509,2.68646,2.68646,0,0,0-1.1055.2197,1.55156,1.55156,0,0,0-.7559.5532,2.998,2.998,0,0,1-.3515.5127l-0.0235.0273c-0.0107.0118-.0205,0.023-0.0273,0.0318-0.0645.0669-.13089,0.1333-0.1953,0.1992a0.671,0.671,0,0,0-.2793.6138A0.66061,0.66061,0,0,0,122.5625,12.2739Z" transform="translate(-0.00072 0.0011)"/><path d="M135.8613,17.6919a3.61818,3.61818,0,0,0,1.8936-.6616,21.15633,21.15633,0,0,0,3.623-3.6421c0.2881-.3931-1.0488-0.2432-1.1181-0.23a2.73108,2.73108,0,0,0-1.6602.7456,19.69312,19.69312,0,0,1-3.3916,3.374C134.71,17.6929,135.64841,17.7119,135.8613,17.6919Z" transform="translate(-0.00072 0.0011)"/><path d="M146.7402,44.76949h-4.872a1.60343,1.60343,0,0,0-1.5557,1.13871c-0.0898.73829,0.75391,0.9219,1.3037,0.9219h4.8701a1.60916,1.60916,0,0,0,1.5577-1.1387C148.1338,44.9521,147.29,44.76949,146.7402,44.76949Z" transform="translate(-0.00072 0.0011)"/><path d="M57.021,60.7842a2.22929,2.22929,0,0,0-1.6392.831,34.63124,34.63124,0,0,0-1.3637,3.8965c-0.211.7334,2.5708,0.333,2.7978-.45121A34.63652,34.63652,0,0,1,58.1792,61.164C58.4009,60.6367,57.2129,60.7519,57.021,60.7842Z" transform="translate(-0.00072 0.0011)"/><path d="M61.6021,63.375a4.54411,4.54411,0,0,0-1.9971.5351,0.53591,0.53591,0,0,0-.3379.3897,3.16076,3.16076,0,0,1-.021.34669,0.75412,0.75412,0,0,1-.125.28511l0.0117-.0136c-0.0639.082-.1079,0.1796,0.0181,0.2529a1.27355,1.27355,0,0,0,.7119.0615,4.71843,4.71843,0,0,0,1.0991-.25191,2.05832,2.05832,0,0,0,.7949-0.40629,0.96429,0.96429,0,0,0,.2842-0.501,2.66659,2.66659,0,0,0,.0498-0.5293C62.0899,63.3779,61.669,63.376,61.6021,63.375Z" transform="translate(-0.00072 0.0011)"/><path d="M116.65241,67.0508c-0.35451-.6856-3.043.331-2.82331,0.7578,0.8438,1.6367,1.9385,3.1211,2.9229,4.6758,0.4355,0.6894,3.04-.4141,2.8232-0.75591C118.5928,70.1738,117.4961,68.6894,116.65241,67.0508Z" transform="translate(-0.00072 0.0011)"/><path d="M120.7442,64.7129a1.34763,1.34763,0,0,0-1.6241-.4141c-0.3506.0938-1.4853,0.59769-1.1992,1.1699q0.58455,1.17045,1.169,2.3399a1.3493,1.3493,0,0,0,1.624.414c0.3506-.0947,1.4863-0.5986,1.1992-1.1718Q121.32856,65.88183,120.7442,64.7129Z" transform="translate(-0.00072 0.0011)"/><path d="M5.668,43.10549c-1.4859.35841-3.0059,0.57031-4.481,0.97461-0.5371.14639-1.3418,0.6406-1.1601,1.3183,0.1811,0.6748,1.1279.709,1.664,0.5615,1.4761-.4033,2.9951-0.6152,4.482-0.9755,0.541-.12891,1.3383-0.6504,1.1601-1.3174C7.148,42.9824,6.209,42.9746,5.668,43.10549Z" transform="translate(-0.00072 0.0011)"/></g><g id="Layer_1-2" data-name="Layer 1"><path class="cls-1" d="M43.752,40.10549c-0.083-2.70709-.5142-5.39559-0.479-8.10749,0.0278-2.1938.393-4.4502-.3628-6.5542,0.0468-.2387.0966-0.477,0.1406-0.7168,0.1953-1.0551-3.2998-.497-3.8486.4678a0.83032,0.83032,0,0,0-.377.9653c0.0366,0.087.0689,0.1748,0.1021,0.2627a79.01051,79.01051,0,0,1-2.6451,9.4981c-0.4062,1.1992-.896,2.3701-1.31,3.5654a35.78094,35.78094,0,0,1-1.6582-3.4082c-1.3858-3.4639-2.6358-6.9653-4.3262-10.2993,0.1924-1.543-3.2319-1.3809-3.9067.0322a8.72247,8.72247,0,0,0-.4419,5.2622,45.7409,45.7409,0,0,1,.3808,6.167c0.0479,4.0117.3609,8.0156,0.4209,12.0274a1.01334,1.01334,0,0,0-.0918,1.3877,3.15932,3.15932,0,0,0,.5757.5537c0.9131,0.7304,3.5332.1074,3.5283-1.2832-0.0141-4.1602-.3139-8.3116-0.4243-12.4707-0.0107-.4073-0.0176-0.814-0.0239-1.2222,0.0581,0.146.1152,0.293,0.1733,0.438a34.28822,34.28822,0,0,0,2.2046,4.6963,21.58337,21.58337,0,0,1,1.8194,4.7187,0.78065,0.78065,0,0,0-.2344.7149,0.31116,0.31116,0,0,0,.2534.3632c0.645,0.5518,1.8579.2774,2.5317-.0068a6.185,6.185,0,0,0,.834-0.42671,1.22286,1.22286,0,0,0,.7349-1.17c-0.0298-.09369-0.0586-0.18749-0.0879-0.28119a24.51544,24.51544,0,0,0,.9751-3.9649,25.08392,25.08392,0,0,1,1.3071-4.1718c0.0528,0.625.107,1.25,0.1568,1.873,0.206,2.5762.0332,5.1172,0.0083,7.6953a11.73779,11.73779,0,0,0,.2207,2.4844,10.67154,10.67154,0,0,1,.2832,1.9043,0.78227,0.78227,0,0,0,.3891,1.4492,3.34815,3.34815,0,0,0,2.795-.749c1.2089-1.1162.6376-2.8701,0.3637-4.28031C43.273,45.1582,43.8262,42.5117,43.752,40.10549Z" transform="translate(-0.00072 0.0011)"/><path class="cls-1" d="M52.1919,40.7881c-0.0737-2.0069-.771-3.8975-0.7808-5.9253a49.112,49.112,0,0,0-.1562-6.9488c-0.1069-.7319-4.0928.1011-3.9526,1.0591a39.25733,39.25733,0,0,1,.1606,6.4116,39.48644,39.48644,0,0,0,.7373,5.9581c0.271,2.0732-.085,4.1953.1499,6.2714,0.1099,0.9707.7578,2.7676,0.0899,3.61229-0.4239.53721,1.4819,0.34381,1.5678,0.33011a3.89764,3.89764,0,0,0,2.3242-1.0488c0.6592-.835.1978-2.44731,0.0542-3.3867A55.43414,55.43414,0,0,1,52.1919,40.7881Z" transform="translate(-0.00072 0.0011)"/><path class="cls-1" d="M68.6709,37.43749c-2.081-2.80859-5.9429-.78659-8.6401-1.55369-1.3897-.396-1.4068-2.292-1.4029-3.4278a35.46152,35.46152,0,0,0-.2758-4.184,3.43687,3.43687,0,0,1,.7529-2.9302A4.36224,4.36224,0,0,1,59.9219,25a8.03294,8.03294,0,0,1,1.0771-.0938c1.562-.0673,4.6538.2339,4.0562,2.5059-0.2691,1.019,3.6289.4351,3.9126-.6431,1.2241-4.6401-7.3516-3.749-9.7739-3.1059-2.231.5918-4.6919,1.8618-4.8189,4.438-0.062,1.2299.2739,2.4008,0.3281,3.6201,0.0611,1.4028-.2002,2.8017.2911,4.1548,1.0917,3.0097,5.5698,1.5898,7.8486,1.7607,3.8804,0.29,2.7222,5.5195,2.7724,7.9551,0.0269,1.3008,1.1919,3.4609.2129,4.5488-0.601.668-2,.707-2.8169,0.7744-0.8212.0694-2.2212,0.31549-2.768-.4648-1.002-1.43071.0927-3.834-.1211-5.47371C60,44.043,56.0181,44.8799,56.169,46.0351c0.3461,2.65039-1.4122,6.1993,2.4238,6.6543a18.23689,18.23689,0,0,0,7.5683-.9355,8.91349,8.91349,0,0,0,3.272-1.8106c1.0449-.9482.7007-2.3681,0.4209-3.5781C69.1719,43.4219,70.5928,40.0322,68.6709,37.43749Z" transform="translate(-0.00072 0.0011)"/><path class="cls-1" d="M86.1543,37.248c-0.1211-3.812-.6953-7.582-0.71089-11.3999-0.00781-1.9892-4-1.3169-3.99221.3457,0.0146,3.6411.501,7.232,0.6875,10.8628l0.01171,0.2227c-1.96681-.0186-3.93361.1787-5.90431,0.248,0.2031-4.6753-.6172-9.3115-0.4375-13.9834,0.0215-.5869-3.9097-0.0908-3.9536,1.0591-0.1719,4.5161.5933,8.9971,0.457,13.5142-0.0639,2.15429-.247,4.3027-0.2622,6.4599a21.87933,21.87933,0,0,0,.332,3.293,8.40034,8.40034,0,0,1,.1832,3.3486c-0.2378.7793,3.5942,0.293,3.8969-.7011,0.5498-1.793-.2236-4.0762-0.4072-5.8916a30.99366,30.99366,0,0,1,.084-5.2959,30.027,30.027,0,0,1,6.13471-.0118q0.13484,2.086.32429,4.1719c0.1064,1.168.1816,2.334,0.1982,3.5069a10.65911,10.65911,0,0,1-.2226,3.4921c-0.7803,2.0752,3.1787,1.90529,3.7568.3682,0.7099-1.8877.5068-4.2373,0.3857-6.2207C86.5645,42.1689,86.23441,39.7168,86.1543,37.248Z" transform="translate(-0.00072 0.0011)"/><path class="cls-1" d="M103.2422,41.7617a74.51619,74.51619,0,0,0-3.6494-7.8677c1.0107-1.9673,2.0361-3.935,2.959-5.9419,0.8388-1.8242,1.4599-3.854,3.1074-5.1391,0.5791-.4512.5547-0.9038-0.25879-0.96a4.48678,4.48678,0,0,0-2.79491.749,10.84319,10.84319,0,0,0-3.2285,4.3072c-0.9395,2.0688-1.9141,4.1005-2.9395,6.1298-0.0742.149-.1504,0.2979-0.2266,0.4478a1.15671,1.15671,0,0,0-.64449,1.2773c-0.79881,1.5777-1.61421,3.146-2.52151,4.6529-0.3017-5.584-.9629-11.1621-1.1611-16.751-0.0449-1.2813-4.0068-.4839-3.9521,1.0591,0.2451,6.9302,1.2294,13.8452,1.2988,20.7749-0.0176.0176-.0332,0.0342-0.0488,0.0508-0.3038.3105-.1915,0.498,0.05271,0.6064,0.00189,1.7666-.06061,3.5342-0.211,5.3027-0.47751.752,0.46679,1.1495,1.09379,1.1495h0.0977c0.746,0,2.6484-.3536,2.7421-1.377a63.30608,63.30608,0,0,0,.23441-6.3486,31.70294,31.70294,0,0,0,4.09279-5.6866,29.78342,29.78342,0,0,1,2.0068,4.625c0.8682,2.7657,2.3203,5.3077,3.1592,8.087,0.5498,1.82129,4.4971.7451,3.95221-1.0596C105.5625,47.0722,104.1777,44.5049,103.2422,41.7617Z" transform="translate(-0.00072 0.0011)"/><path class="cls-1" d="M126.96,37.0849c-0.2119-.8398-1.3848-0.8569-2.292-0.7768-0.0137-.3384-0.0215-0.6773-0.0362-1.0161-0.1269-2.6861-.1679-5.4278-0.3955-8.105-0.21089-2.479-1.5996-3.3682-4.0078-3.2759a24.49189,24.49189,0,0,0-7.5508,1.416,7.0571,7.0571,0,0,0-4.6005,5.7329c-0.5557,3.0411.24121,6.2749,0.3769,9.3306,0.15531,3.5352.0654,7.0781,0.0615,10.6143,0,0.5791,3.9522.0312,3.9532-1.0596,0.0039-2.80081.0429-5.6016,0-8.4014-0.0137-.8261-0.0518-1.64741-0.1036-2.4658,1.3819-.59961,3.7207.0127,5.0967,0.1426a15.32244,15.32244,0,0,0,3.27251-.294c0.02149,2.333.10839,4.67879,0.20509,7.00879,0.0488,1.19341.4804,3.56251-.3565,4.55081-0.4404.5215,1.4932,0.3477,1.56741,0.334a3.97942,3.97942,0,0,0,2.32419-1.05081c0.959-1.12889.461-3.82419,0.4053-5.17189-0.0791-1.9287-.10249-3.8593-0.1436-5.789C125.90241,38.6562,127.1777,37.9433,126.96,37.0849Zm-14.752-.1513c-0.1045-1.2578-.2197-2.5137-0.30559-3.7774-0.16121-2.352.11709-5.6342,2.30949-7.0625a7.22163,7.22163,0,0,1,2.377-.4419,3.70271,3.70271,0,0,1,2.85451.1919c1.22159,0.8101.91989,3.6905,0.91789,4.9131-0.00189,2.0244.211,4.0381,0.3135,6.0581a13.83843,13.83843,0,0,1-1.6982.0777C116.6699,36.8369,114.3926,36.4741,112.208,36.9336Z" transform="translate(-0.00072 0.0011)"/><path class="cls-1" d="M48.771,25.1758a3.18962,3.18962,0,0,0,1.4902-.5288c0.087-.0728.1729-0.146,0.2598-0.2193a1.18351,1.18351,0,0,0,.7339-1.3725,7.78524,7.78524,0,0,1-.4199-3.4454c0.0068-.9658-0.9722-1.2568-1.7969-1.185-0.729.0644-2.188,0.5859-2.1939,1.5342a16.06951,16.06951,0,0,0,.1099,3.02,2.34463,2.34463,0,0,0-.105.3579,0.69709,0.69709,0,0,0,.1441.5952c0,0.0449.0019,0.0899,0.0019,0.1348,0.0049,0.1133.0108,0.2261,0.0147,0.3384a0.90882,0.90882,0,0,0,.4331.5346A2.18957,2.18957,0,0,0,48.771,25.1758Z" transform="translate(-0.00072 0.0011)"/></g></svg>