<svg id="Layer_1" data-name="Layer 1" xmlns="http://www.w3.org/2000/svg" viewBox="0 0 66.00204 100.80162"><defs><style>.cls-1{fill:#fff;}.cls-2{fill:#6bc6b3;}</style></defs><title>map-pin</title><path class="cls-1" d="M56.33451,9.228a34.11116,34.11116,0,0,0-46.66651,0,30.48423,30.48423,0,0,0,0,44.5415s23.3179,21.8321,23.3179,47.0313c0-25.1992,23.3427-47.0313,23.3427-47.0313A30.48028,30.48028,0,0,0,56.33451,9.228Z" transform="translate(0.00032 0.00082)"/><path class="cls-2" d="M47.0357,45.5225c-0.6358-3.2769.12981-6.9473,0.0273-10.2842-0.1152-3.7554-.7129-7.48491-0.665-11.2461,0.039-3.0439.5449-6.1733-.503-9.09081,0.06551-.33209.1338-0.66209,0.1953-0.99509,0.2706-1.46291-4.5771-.6895-5.33779.6489a1.15329,1.15329,0,0,0-.52351,1.3389c0.0508,0.121.0967,0.2431,0.1416,0.3652a109.41937,109.41937,0,0,1-3.668,13.1743c-0.5634,1.6626-1.24409,3.2876-1.8173,4.94579a49.64039,49.64039,0,0,1-2.29979-4.728C30.6631,24.8462,28.9297,19.9907,26.585,15.3667c0.2661-2.1401-4.4839-1.916-5.4209.044-1.1323,2.3706-.9859,4.7631-0.6128,7.2988a63.38946,63.38946,0,0,1,.5278,8.5537c0.06641,5.5659.502,11.1191,0.5845,16.6836a1.40383,1.40383,0,0,0-.127,1.9243,4.2594,4.2594,0,0,0,.7993.7686c1.2652,1.01269,4.8995.1503,4.8931-1.77931-0.02-5.77049-.43649-11.53129-0.5889-17.29889-0.0151-.5649-0.0253-1.1294-0.03359-1.6938,0.08,0.2026.15859,0.40569,0.23969,0.6074a47.23435,47.23435,0,0,0,3.0591,6.5142,30.04973,30.04973,0,0,1,2.5234,6.5468,1.08256,1.08256,0,0,0-.3261.99129,0.43151,0.43151,0,0,0,.3515.50391c0.8936,0.76609,2.5777.3833,3.5132-.0098a8.374,8.374,0,0,0,1.1553-.5928c0.4834-.2969,1.2363-0.9502,1.0205-1.6221-0.041-.1298-0.0811-0.2597-0.1211-0.3906a34.22319,34.22319,0,0,0,1.35151-5.5,34.8636,34.8636,0,0,1,1.81159-5.78561c0.0732,0.86671.14941,1.73241,0.2187,2.59671,0.2852,3.5747.0459,7.0986,0.0108,10.67429a16.286,16.286,0,0,0,.3056,3.44531,14.78274,14.78274,0,0,1,.3936,2.6416,1.08563,1.08563,0,0,0,.539,2.0107,4.65339,4.65339,0,0,0,3.877-1.039C48.2066,49.9111,47.4136,47.4785,47.0357,45.5225Z" transform="translate(0.00032 0.00082)"/></svg>