<svg id="Laag_1" data-name="Laag 1" xmlns="http://www.w3.org/2000/svg" viewBox="0 0 100.67768 76.89158"><defs><style>.cls-1{fill:#63d1bb;}.cls-2{fill:#fff;}</style></defs><title>play</title><path class="cls-1" d="M96.956,18.1494s-0.91991-7.0078-3.78511-10.0781C89.539,4.0303,85.497,4.0049,83.62979,3.7744,70.30369,2.751,50.32709,2.751,50.32709,2.751h-0.0508s-19.9785,0-33.3047,1.0234c-1.8671.2295-5.9082,0.2559-9.54,4.2969-2.8398,3.0957-3.7861,10.0781-3.7861,10.0781S2.75,26.3603,2.75,34.5713v7.6992a164.22254,164.22254,0,0,0,.94719,16.4209s0.9209,7.0088,3.7852,10.07811c3.6318,4.041,8.3633,3.91309,10.4863,4.34864,7.6221,0.76757,32.3565,1.02246,32.3565,1.02246s20.0029-.02539,33.3281-1.04786c1.8672-.23046,5.9082-0.25683,9.54-4.29882,2.8408-3.06833,3.7862-10.07713,3.7862-10.07713a164.37177,164.37177,0,0,0,.9462-16.4219V34.5967C97.90229,26.3603,96.956,18.1494,96.956,18.1494Z"/><path class="cls-2" d="M50.31439,76.89061h-0.0156c-1.0147-.01074-24.9463-0.2666-32.6035-1.03711l-0.1407-.01367-0.1367-.02832c-0.2715-.05566-0.66789-0.10742-1.12589-0.167C13.789,75.31639,9.13279,74.706,5.45309,70.625,2.09859,67.00975,1.07609,59.8545.96969,59.0498l-0.0049-.043A165.51263,165.51263,0,0,1,0,42.2705V34.5713c0-8.2657.875-16.378,0.91209-16.7198l0.0088-.0712c0.1084-.8018,1.1552-7.9278,4.4736-11.5567a15.42815,15.42815,0,0,1,10.7119-5.1211c0.1924-.0205.3701-0.0371,0.5293-0.0586l0.126-.0127C30.039,0.0117,50.07419,0,50.27629,0h0.0508c0.2012,0,20.2354.0127,33.5137,1.0312l0.126,0.0127c0.1591,0.0215.3369,0.0381,0.5293,0.0586a15.42729,15.42729,0,0,1,10.7031,5.1113c3.3545,3.6163,4.3779,10.7715,4.4834,11.5772l0.0049,0.043c0.039,0.3427.9648,8.4589,0.9902,16.7529v7.708a165.46843,165.46843,0,0,1-.9648,16.7363L99.706,59.084c-0.10842.8056-1.15621,7.95309-4.47851,11.56247a15.42844,15.42844,0,0,1-10.707,5.11718c-0.1924.01953-.3711,0.03711-0.5303,0.05664l-0.126.01269c-13.2754,1.02051-33.333,1.05762-33.53419,1.05859l-0.01561-.001h0Zm-31.9433-6.49707c7.4765,0.72851,31.2158.98925,31.9677,0.99707,0.6573-.001,20.1348-0.04883,33.0469-1.03614,0.1777-.02148.3711-0.041,0.5801-0.0625a10.00012,10.00012,0,0,0,7.1855-3.335l0.0264-.02832C93.00289,64.9541,94.03019,60,94.25289,58.376c0.0586-.5137.9258-8.3575,0.9258-16.0791V34.5976c-0.0235-7.7597-.8965-15.6269-0.9512-16.1093-0.3203-2.3819-1.4336-6.7891-3.0654-8.5391l-0.0352-.0381a10.00339,10.00339,0,0,0-7.1865-3.3359c-0.209-.0215-0.40139-0.041-0.5801-0.0625-13.0654-.9971-32.833-1.0108-33.0322-1.0108h-0.0508c-0.1982,0-19.9678.0137-33.0332,1.0108-0.1768.0215-.37109,0.041-0.58009,0.0625A10.00666,10.00666,0,0,0,9.47749,9.9111l-0.0186.0215c-1.8281,1.9922-2.8554,6.9238-3.082,8.5518-0.0615.5908-.875,8.3994-0.875,16.0888v7.6992c0,7.7491.87111,15.5977,0.9258,16.083,0.32031,2.3809,1.4336,6.7891,3.0664,8.53911l0.0352,0.03906c2.3212,2.584,5.30271,2.97461,7.4785,3.25879C17.48919,70.25389,17.94719,70.31346,18.37109,70.39354Z"/><polygon class="cls-2" points="38.434 20.579 38.434 56.287 68.181 38.434 38.434 20.579"/></svg>