<svg id="Layer_1" data-name="Layer 1" xmlns="http://www.w3.org/2000/svg" viewBox="0 0 1150 34"><defs><style>.cls-1{fill:#fff;}</style></defs><title>wave-light</title><path class="cls-1" d="M1121.252,0c-14.375,0-14.375,14-28.74912,14s-14.374-14-28.748-14-14.374,14-28.7481,14c-14.375,0-14.375-14-28.75-14-14.374,0-14.374,14-28.748,14s-14.374-14-28.7481-14-14.374,14-28.749,14-14.375-14-28.749-14-14.374,14-28.749,14-14.375-14-28.75-14c-14.3711,0-14.3711,14-28.7432,14-14.375,0-14.375-14-28.75-14-14.3721,0-14.3721,14-28.7441,14-14.3741,0-14.3741-14-28.7471-14s-14.373,14-28.7471,14c-14.372,0-14.372-14-28.7451-14-14.374,0-14.374,14-28.748,14-14.375,0-14.375-14-28.751-14-14.374,0-14.374,14-28.74809,14S560.666,0,546.292,0s-14.374,14-28.74761,14c-14.3745,0-14.3745-14-28.7485-14-14.375,0-14.375,14-28.75,14-14.376,0-14.376-14-28.7524-14-14.375,0-14.375,14-28.75,14C388.168,14,388.168,0,373.792,0c-14.375,0-14.375,14-28.7505,14S330.666,0,316.2905,0,301.915,14,287.53906,14C273.1626,14,273.1626,0,258.7861,0c-14.3735,0-14.3735,14-28.747,14-14.375,0-14.375-14-28.75-14-14.3755,0-14.3755,14-28.751,14-14.377,0-14.377-14-28.7539-14-14.3775,0-14.3775,14-28.7549,14C100.6514,14,100.6514,0,86.2734,0S71.8955,14,57.5181,14C43.1387,14,43.1387,0,28.7593,0S14.3799,14,0,14V34H1150V14C1135.626,14,1135.626,0,1121.252,0Z"/></svg>