<svg id="Layer_2" data-name="Layer 2" xmlns="http://www.w3.org/2000/svg" viewBox="0 0 1150 23"><defs><style>.cls-1{fill:#e6e6e7;}</style></defs><title>wave</title><path class="cls-1" d="M1150,23c-9.01662,0-13.72752-4.5889-17.51372-8.2764C1129.07418,11.4009,1126.60938,9,1121.252,9c-5.35842,0-7.82332,2.4009-11.23542,5.7236-3.7861,3.6875-8.4971,8.2764-17.5137,8.2764s-13.7275-4.5889-17.5136-8.2764c-3.4122-3.3227-5.877-5.7236-11.2344-5.7236s-7.8223,2.4009-11.2344,5.7236c-3.7861,3.6875-8.4971,8.2764-17.5137,8.2764s-13.7285-4.5889-17.5146-8.2764c-3.4121-3.3227-5.877-5.7236-11.2354-5.7236-5.3574,0-7.8222,2.4009-11.2343,5.7236C991.23628,18.4111,986.52538,23,977.50878,23s-13.7275-4.5889-17.5137-8.2764C956.583,11.4009,954.11818,9,948.76068,9s-7.8222,2.4009-11.2343,5.7236C933.74018,18.4111,929.02828,23,920.01168,23s-13.7285-4.5889-17.5146-8.2764C899.085,11.4009,896.62008,9,891.26268,9s-7.8223,2.4009-11.2344,5.7236c-3.7861,3.6875-8.498,8.2764-17.5146,8.2764s-13.7285-4.5889-17.51469-8.2764C841.58689,11.4009,839.12209,9,833.76369,9c-5.3555,0-7.8203,2.4004-11.2315,5.7231C818.74709,18.4106,814.03609,23,805.02049,23c-9.0166,0-13.72849-4.5889-17.5146-8.2764C784.09379,11.4009,781.62889,9,776.27049,9c-5.3564,0-7.8213,2.4009-11.2324,5.7231C761.25289,18.4111,756.542,23,747.52639,23c-9.0166,0-13.7285-4.5889-17.5137-8.2769C726.60159,11.4009,724.13669,9,718.77929,9s-7.82129,2.4009-11.2334,5.7231c-3.7852,3.688-8.4971,8.2769-17.5137,8.2769-9.0156,0-13.7265-4.5889-17.5117-8.2764C669.10939,11.4009,666.64449,9,661.28709,9s-7.8223,2.4009-11.2344,5.7236c-3.7861,3.6875-8.497,8.2764-17.5136,8.2764s-13.7286-4.5889-17.5147-8.2759C611.61229,11.4009,609.14749,9,603.78809,9c-5.3574,0-7.8223,2.4009-11.2344,5.7236C588.76759,18.4111,584.05659,23,575.04,23c-9.01611,0-13.728-4.5889-17.51361-8.2764C554.11469,11.4009,551.64989,9,546.292,9s-7.82281,2.4009-11.23441,5.7236C531.272,18.4111,526.56049,23,517.54439,23c-9.0166,0-13.7285-4.5889-17.5141-8.2764C496.61869,11.4009,494.15329,9,488.79589,9c-5.3584,0-7.8232,2.4009-11.2354,5.7236C473.7744,18.4111,469.0625,23,460.0459,23c-9.0171,0-13.729-4.5889-17.5156-8.2759C439.1182,11.4009,436.6528,9,431.2935,9c-5.3584,0-7.8233,2.4009-11.2354,5.7236C416.272,18.4111,411.5601,23,402.5435,23s-13.729-4.5889-17.5152-8.2764C381.6162,11.4009,379.1509,9,373.792,9c-5.3584,0-7.8232,2.4009-11.2354,5.7236C358.7705,18.4111,354.0586,23,345.0415,23s-13.729-4.5889-17.5151-8.2764C324.1143,11.4009,321.6489,9,316.2905,9s-7.8237,2.4009-11.2358,5.7236C301.2686,18.4111,296.5562,23,287.5391,23c-9.01762,0-13.72953-4.5889-17.51615-8.2764C266.6108,11.4009,264.145,9,258.7861,9c-5.3574,0-7.8222,2.4009-11.2339,5.7236C243.7666,18.4111,239.0552,23,230.0391,23c-9.0166,0-13.7286-4.5889-17.5147-8.2764C209.1123,11.4009,206.6475,9,201.2891,9s-7.8238,2.4009-11.2359,5.7236C186.2671,18.4111,181.5552,23,172.5381,23c-9.0176,0-13.73-4.5889-17.5166-8.2759C151.6094,11.4009,149.1436,9,143.7842,9c-5.3599,0-7.8252,2.4009-11.2378,5.7241C128.7598,18.4111,124.0469,23,115.0293,23c-9.0181,0-13.7305-4.5889-17.5171-8.2759C94.0991,11.4009,91.6333,9,86.2734,9s-7.8256,2.4009-11.2387,5.7241C71.2485,18.4111,66.5356,23,57.5181,23c-9.0186,0-13.7315-4.5884-17.5186-8.2759C36.5864,11.4009,34.1201,9,28.7593,9s-7.8272,2.4009-11.2403,5.7241C13.7319,18.4111,9.0186,23,0,23V14c5.3613,0,7.8271-2.4009,11.2407-5.7241C15.0278,4.5884,19.7407,0,28.7593,0S42.4907,4.5884,46.2778,8.2759C49.6909,11.5991,52.1572,14,57.5181,14c5.3598,0,7.8252-2.4009,11.2382-5.7241C72.543,4.5889,77.2554,0,86.2734,0s13.7305,4.5889,17.5171,8.2759C107.2036,11.5991,109.6694,14,115.0293,14s7.8257-2.4009,11.2383-5.7241C130.0542,4.5889,134.7666,0,143.7842,0s13.73,4.5889,17.5166,8.2759C164.7129,11.5991,167.1787,14,172.5381,14c5.3584,0,7.8237-2.4009,11.2358-5.7236C187.5601,4.5889,192.272,0,201.2891,0c9.0166,0,13.7285,4.5889,17.5146,8.2764C222.2158,11.5991,224.6807,14,230.0391,14c5.3574,0,7.8222-2.4009,11.2338-5.7236C245.0586,4.5889,249.77,0,258.7861,0c9.01712,0,13.72952,4.5889,17.51615,8.2764C279.71436,11.5991,282.17969,14,287.5391,14c5.3588,0,7.8242-2.4009,11.2363-5.7236C302.5615,4.5889,307.2739,0,316.2905,0c9.0171,0,13.729,4.5889,17.5152,8.2764C337.2178,11.5991,339.6831,14,345.0415,14c5.3589,0,7.8237-2.4009,11.2358-5.7236C360.0635,4.5889,364.7754,0,373.792,0c9.0171,0,13.7295,4.5889,17.5156,8.2764C394.7197,11.5991,397.1851,14,402.5435,14s7.8232-2.4009,11.2353-5.7236C417.5649,4.5889,422.2769,0,431.2935,0c9.0175,0,13.7294,4.5889,17.5161,8.2764C452.2217,11.5991,454.687,14,460.0459,14c5.3584,0,7.8232-2.4009,11.2354-5.7236C475.0674,4.5889,479.77929,0,488.79589,0c9.01611,0,13.728,4.5889,17.5137,8.2764,3.4116,3.3227,5.8769,5.7236,11.2348,5.7236,5.3575,0,7.8223-2.4009,11.2339-5.7236C532.564,4.5889,537.27539,0,546.292,0c9.01609,0,13.728,4.5889,17.51369,8.2764C567.21729,11.5991,569.68209,14,575.04,14c5.35749,0,7.82229-2.4009,11.23439-5.7236C590.06049,4.5889,594.77149,0,603.78809,0c9.0176,0,13.7295,4.5889,17.5156,8.2764,3.4121,3.3227,5.877,5.7236,11.2354,5.7236,5.3574,0,7.8222-2.4009,11.2343-5.7236C647.55959,4.5889,652.27049,0,661.28709,0s13.7275,4.5894,17.5127,8.2769c3.4111,3.3227,5.876,5.7231,11.2324,5.7231,5.3574,0,7.8223-2.4009,11.2344-5.7236C705.05179,4.5889,709.76369,0,718.77929,0s13.7275,4.5889,17.51271,8.2764C739.70409,11.5991,742.16889,14,747.52639,14c5.3564,0,7.8213-2.4009,11.2324-5.7231C762.54389,4.5889,767.25489,0,776.27049,0c9.0166,0,13.72851,4.5889,17.5147,8.2764,3.4121,3.3227,5.8769,5.7236,11.2353,5.7236,5.35651,0,7.8213-2.4009,11.2324-5.7236C820.03809,4.5889,824.749,0,833.76369,0c9.0166,0,13.7285,4.5889,17.5146,8.2764,3.4121,3.3227,5.877,5.7236,11.2354,5.7236s7.8232-2.4009,11.23531-5.7236C877.53518,4.5889,882.24708,0,891.26268,0c9.0166,0,13.7275,4.5889,17.5137,8.2764,3.4121,3.3227,5.8769,5.7236,11.2353,5.7236s7.82332-2.4009,11.2354-5.7236C935.03318,4.5889,939.74408,0,948.76068,0s13.7276,4.5889,17.5137,8.2764c3.4121,3.3227,5.877,5.7236,11.2344,5.7236s7.8223-2.4009,11.2344-5.7236C992.52928,4.5889,997.24018,0,1006.25678,0s13.7286,4.5889,17.5147,8.2764c3.4121,3.3227,5.8769,5.7236,11.2353,5.7236,5.3575,0,7.8223-2.4009,11.2344-5.7236,3.7861-3.6875,8.4971-8.2764,17.5137-8.2764s13.7275,4.5889,17.5137,8.2764c3.4121,3.3227,5.8769,5.7236,11.2343,5.7236s7.8223-2.4009,11.2344-5.7236C1107.52338,4.5889,1112.23538,0,1121.252,0s13.72748,4.5889,17.51358,8.2764C1142.17768,11.5991,1144.64258,14,1150,14v9Z"/></svg>