<svg id="Layer_1" data-name="Layer 1" xmlns="http://www.w3.org/2000/svg" viewBox="0 0 154.3843 195.32523"><defs><style>.cls-1{stroke:#231f20;stroke-miterlimit:10;}</style></defs><title>htmlAcademy</title><path class="cls-1" d="M77.9966,0.58672l-0.80668-.084L0.5,8.54272v140.5679l76.69191,45.6328,76.69238-45.6328V8.54272Zm65.8555,142.8198-66.66018,39.6631L10.5317,143.40652V85.79131l66.3741,39.50581,0.1113,7.15919L31.48291,105.35672l-0.06692,6.9512,45.71492,27.4746,0.11278,7.3496L31.544,119.94652l-0.066,6.9502,45.71392,27.47459,46.15228-27.61519v-6.9824l-0.0576.0342V97.10231l20.5655-12.28079v58.585Zm-0.0538-66.0591L125.562,88.09162l-8.4189,4.9599-40.149-23.8838-0.0659,6.9507,34.3164,20.4072-0.30368.17969-0.73922.43511-4.876,2.8725L76.9941,83.15852l-0.0659,6.9511,22.3623,13.2979-5.2763,3.5293-0.128.0771-16.8921-9.9511-0.0659,6.9501,11.084,6.52739-11.291,6.77931L10.6768,78.06031,76.81591,38.30542v0.0074Zm0.0538-6.9917L76.832,30.84742v-0.0097l-0.0083.0048-0.00778-.0048v0.0097L10.5317,70.30931V17.57842l66.66121-6.9888,66.65918,6.9888v52.7773Z"/></svg>