<svg id="svg4488" xmlns="http://www.w3.org/2000/svg" viewBox="0 0 40.2192 62.4111"><title>lamp</title><path d="M15.1777,37.958a7.99963,7.99963,0,0,0,.0269,3.6387c0.4941,2.6347,1.6865,6.041,2.3584,9.6699h5.062c0.6963-3.6406,1.9492-7.04981,2.4707-9.6826a7.672,7.672,0,0,0,.0405-3.61721,4.0973,4.0973,0,0,0-2.0215-2.30269H17.1182A4.06217,4.06217,0,0,0,15.1777,37.958Z"/><path d="M27.0093,57.9531H13.21a2.23664,2.23664,0,0,0-2.2994,2.2295v2.2285h18.398V60.1826A2.23661,2.23661,0,0,0,27.0093,57.9531Z"/><path d="M34.1421,2.229H22.4097a2.30118,2.30118,0,0,0-4.6001,0H6.0728L0,27.7456a5.17089,5.17089,0,0,1,2.6318-.9922,4.50616,4.50616,0,0,1,2.9239,1.3755,3.15105,3.15105,0,0,0,1.4472.8486,3.127,3.127,0,0,0,1.4507-.8359,4.53464,4.53464,0,0,1,2.9151-1.3579,4.55312,4.55312,0,0,1,2.9189,1.3535,3.17717,3.17717,0,0,0,1.4512.8403,1.25749,1.25749,0,0,0,.5796-0.2143,7.64253,7.64253,0,0,0,.8715-0.6265,5.82894,5.82894,0,0,1,1.9898-1.2182,3.22208,3.22208,0,0,1,.9297-0.1358,4.555,4.555,0,0,1,2.9199,1.354,3.1672,3.1672,0,0,0,1.4512.8403,3.19349,3.19349,0,0,0,1.4453-.8496,4.54055,4.54055,0,0,1,2.9248-1.3667A4.51337,4.51337,0,0,1,31.77,28.13179a7.76425,7.76425,0,0,0,.8716.63141,1.23248,1.23248,0,0,0,.5747.2138,3.12292,3.12292,0,0,0,1.4424-.854,4.50955,4.50955,0,0,1,2.9287-1.3837,5.144,5.144,0,0,1,2.6318.99649Z"/><path d="M23.5234,53.4951H16.6597a1.1148,1.1148,0,1,0,0,2.2285h6.8999a1.1148,1.1148,0,1,0,0-2.2285H23.5234Z"/><path d="M20.1094,29.0112a1.28615,1.28615,0,0,0-.5796.2134c-0.1567.0938-.3701,0.2607-0.5698,0.4097v3.7309h2.2993V29.6343A2.64808,2.64808,0,0,0,20.1094,29.0112Z"/></svg>