<svg id="Layer_1" data-name="Layer 1" xmlns="http://www.w3.org/2000/svg" viewBox="0 0 112.38885 46.08715"><defs><style>.cls-1{fill:#fff;}</style></defs><title>logo-2</title><g id="Layer_2" data-name="Layer 2"><path d="M110.2276,41.8804c4.3935,0.8681.8427-35.8579,0.1474-38.3106-1.9599-6.5693-26.6767-2.1435-32.1797-1.7173C65.47271,2.8394,53.0064.89209,40.584,1.4766,34.3789,1.769,5.7305-.3364,3.065,3.4629-1.9834,10.6704.4126,29.2603,1.7871,38.5386c-4.0429.7793,2.30861,4.1543,3.1377,4.8974,6.3145,2.1924,16.3584-.2187,23.0074.3955,15.434,1.4717,31.7973-2.1943,47.2758-.955,4.4961,1.1435,9.6036,1.0185,14.22371,1.2392,3.414,5.5723,19.664-2.4609,20.79589-2.2353C110.127,41.8608,110.7344,41.981,110.2276,41.8804Z" transform="translate(0.00014 -0.00009)"/></g><g id="Layer_1-2" data-name="Layer 1"><path class="cls-1" d="M26.0586,24.4097c-0.0786-2.5459-.48389-5.0742-0.4507-7.6241,0.0264-2.0634.3697-4.185-.3408-6.16351,0.0435-.22459.0908-0.44879,0.1319-0.67479,0.1835-.9917-3.1031-0.4668-3.6197.4404a0.78026,0.78026,0,0,0-.354.9077c0.0347,0.0816.065,0.1646,0.0962,0.2471a74.39478,74.39478,0,0,1-2.4873,8.93159c-0.3823,1.128-.8428,2.22851-1.2319,3.35351a33.76667,33.76667,0,0,1-1.5601-3.20551c-1.3027-3.25739-2.47849-6.55029-4.0683-9.68509C12.355,9.4854,9.1348,9.6382,8.5,10.9673a8.2089,8.2089,0,0,0-.4155,4.9482,43.0896,43.0896,0,0,1,.3584,5.7998c0.0449,3.7715.3394,7.5371,0.396,11.3106a0.95275,0.95275,0,0,0-.0869,1.3047,2.9734,2.9734,0,0,0,.542.52049c0.8584,0.68651,3.32271.10061,3.3178-1.20709-0.01309-3.9111-.2949-7.8154-0.3989-11.7265-0.01019-.3828-0.0166-0.7661-0.0224-1.14941,0.0546,0.13721.1084,0.27541,0.163,0.41111a32.138,32.138,0,0,0,2.0728,4.416,20.35336,20.35336,0,0,1,1.71141,4.4375,0.73566,0.73566,0,0,0-.22071.6738,0.29391,0.29391,0,0,0,.2383.3418,2.54809,2.54809,0,0,0,2.3809-.0078,5.722,5.722,0,0,0,.7841-0.4013,1.1493,1.1493,0,0,0,.69141-1.0996c-0.02831-.0889-0.05561-0.1758-0.083-0.2647a23.00612,23.00612,0,0,0,.917-3.7275A23.53482,23.53482,0,0,1,22.0752,21.623c0.0489,0.5875.1001,1.1763,0.147,1.7623,0.1938,2.42179.0312,4.8115,0.0083,7.2363a11.03589,11.03589,0,0,0,.2075,2.3369,10.04729,10.04729,0,0,1,.2661,1.79,0.73592,0.73592,0,0,0,.3658,1.3633,3.1528,3.1528,0,0,0,2.6284-.7051c1.1372-1.0498.5996-2.6992,0.3423-4.0244C25.6079,29.1616,26.1284,26.6733,26.0586,24.4097Z" transform="translate(0.00014 -0.00009)"/><path class="cls-1" d="M33.9951,25.0522c-0.0688-1.8876-.7251-3.666-0.7343-5.5727a46.19143,46.19143,0,0,0-.1465-6.5347c-0.1011-.6885-3.84859.0948-3.7173,0.9961a36.87833,36.87833,0,0,1,.1509,6.0293,37.04221,37.04221,0,0,0,.69381,5.6026c0.25439,1.9502-.08051,3.94529.14109,5.8974,0.1026,0.9131.7124,2.6026,0.084,3.3985-0.3984.5048,1.3941,0.3222,1.4741,0.3095a3.66575,3.66575,0,0,0,2.1861-.9873c0.6201-.7842.186-2.29981,0.0508-3.1846A52.18428,52.18428,0,0,1,33.9951,25.0522Z" transform="translate(0.00014 -0.00009)"/><path class="cls-1" d="M49.4922,21.8999c-1.957-2.6406-5.5889-.7393-8.125-1.4604-1.3076-.3721-1.3227-2.1553-1.3193-3.2237a33.42744,33.42744,0,0,0-.2598-3.9345,3.2329,3.2329,0,0,1,.708-2.7554,4.18812,4.18812,0,0,1,.7681-0.32181,7.59573,7.59573,0,0,1,1.0132-.08789c1.4687-.0635,4.3764.2202,3.8144,2.3565-0.2529.9585,3.4126,0.4091,3.6797-.6045,1.1504-4.3638-6.914-3.5259-9.1919-2.9214-2.0976.5566-4.4116,1.751-4.5312,4.1738-0.0586,1.1563.25731,2.2578,0.3086,3.4043a12.63767,12.63767,0,0,0,.2734,3.90719c1.0269,2.83111,5.2378,1.49511,7.3804,1.65631,3.64991,0.2715,2.5605,5.1904,2.60791,7.4804,0.02489,1.2237,1.12109,3.2549.20019,4.2784-0.5655.62689-1.8809,0.664-2.6489,0.7285-0.7725.06439-2.0889,0.2959-2.6036-.4385-0.9419-1.3447.0874-3.6055-.11369-5.1465-0.11481-.8789-3.85891-0.0908-3.71731.9951,0.3252,2.4922-1.3281,5.8301,2.2788,6.2579a17.13667,17.13667,0,0,0,7.1177-.8809,8.38493,8.38493,0,0,0,3.0771-1.7012c0.9824-.8916.65871-2.22751,0.396-3.3652C49.9634,27.5278,51.2993,24.3403,49.4922,21.8999Z" transform="translate(0.00014 -0.00009)"/><path class="cls-1" d="M65.9336,21.7217c-0.1142-3.584-.6533-7.1294-0.66889-10.7193-0.00691-1.8711-3.76171-1.2387-3.75391.3248,0.0136,3.4243.4717,6.8007,0.6455,10.2153l0.0117,0.209c-1.8496-.0171-3.6992.1689-5.5527,0.2334,0.19141-4.3965-.5801-8.7564-0.4112-13.1494,0.0205-.5528-3.6767-0.0855-3.7177.9951-0.16169,4.24749.5576,8.4609,0.4301,12.709-0.0605,2.0263-.2324,4.0459-0.247,6.0742a20.58558,20.58558,0,0,0,.3125,3.0976,7.9138,7.9138,0,0,1,.1718,3.1494c-0.2236.7315,3.3794,0.2754,3.6656-.6591,0.5156-1.68661-.211-3.834-0.3828-5.5411a29.19607,29.19607,0,0,1,.07811-4.9804,28.26432,28.26432,0,0,1,5.76949-.0108c0.084,1.30769.1856,2.6133,0.3047,3.9239,0.1006,1.0986.1709,2.1943,0.1865,3.29779a10.00582,10.00582,0,0,1-.2099,3.28221c-0.7334,1.9532,2.99021,1.792,3.53321.3467,0.667-1.7754.47649-3.9844,0.36319-5.8496C66.3184,26.35009,66.0078,24.0435,65.9336,21.7217Z" transform="translate(0.00014 -0.00009)"/><path class="cls-1" d="M82.002,25.9673a70.32523,70.32523,0,0,0-3.4307-7.3989c0.9502-1.8501,1.9151-3.7002,2.7822-5.5879,0.7881-1.71541,1.3731-3.6241,2.9219-4.833,0.5449-.4239.5225-0.8496-0.2431-0.90241a4.21821,4.21821,0,0,0-2.629.70411,10.20008,10.20008,0,0,0-3.0351,4.0503c-0.8848,1.9458-1.8008,3.8565-2.7647,5.7647-0.0693.1396-.1406,0.2802-0.21279,0.42089a1.08907,1.08907,0,0,0-.60651,1.20111c-0.75,1.48389-1.5176,2.959-2.3711,4.375-0.2832-5.25-.9053-10.49611-1.0928-15.7519-0.041-1.2046-3.7675-.4551-3.7148.9961,0.2305,6.5171,1.1553,13.0205,1.2207,19.5361-0.0166.01659-.0312,0.0332-0.0469,0.0479-0.2851.2929-.1787,0.46869,0.0508,0.5712,0.002,1.6602-.0566,3.3223-0.1992,4.9854-0.4483.709,0.4394,1.08109,1.0293,1.08109H69.752c0.7012,0,2.4902-.33109,2.5791-1.294,0.18161-1.99219.2373-3.98139,0.2207-5.97069a29.83432,29.83432,0,0,0,3.8486-5.3477,28.05,28.05,0,0,1,1.8867,4.3497c0.8164,2.6015,2.1817,4.9912,2.9707,7.6044,0.5176,1.7129,4.2295.7012,3.7168-.996C84.1846,30.9605,82.8828,28.5474,82.002,25.9673Z" transform="translate(0.00014 -0.00009)"/><path class="cls-1" d="M104.30671,21.5698c-0.19921-.7905-1.30181-0.8066-2.15631-0.7314-0.01169-.3179-0.0195-0.6367-0.0332-0.9556-0.1201-2.5254-.1582-5.104-0.3711-7.6221-0.1982-2.3305-1.5049-3.1674-3.7695-3.08a23.0394,23.0394,0,0,0-7.1006,1.3315,6.63613,6.63613,0,0,0-4.3262,5.3911c-0.5224,2.8599.2266,5.9009,0.3535,8.7749,0.1465,3.3242.0625,6.6553,0.0586,9.9805,0,0.5449,3.71681.0303,3.71681-.9961,0.00389-2.6328.04109-5.2676,0-7.9004-0.01271-.7773-0.04881-1.5488-0.09661-2.3184,1.2998-.5634,3.499.0108,4.792,0.1329a14.41694,14.41694,0,0,0,3.0791-.2754c0.01951,2.1933.10051,4.4004,0.1914,6.59079,0.0468,1.12211.45311,3.35061-.335,4.27931-0.4141.4912,1.4053,0.3262,1.4746,0.3144a3.74915,3.74915,0,0,0,2.1856-.9882c0.9013-1.0616.4326-3.5967,0.3808-4.8633-0.0742-1.8145-.0967-3.6299-0.1348-5.4434C103.3116,23.0474,104.5108,22.3765,104.30671,21.5698Zm-13.87211-.143c-0.0986-1.1831-.207-2.3638-0.2881-3.5523-0.1504-2.2119.1113-5.2983,2.1719-6.6416a6.81418,6.81418,0,0,1,2.23531-.416,3.48454,3.48454,0,0,1,2.68459.1811c1.14841,0.7618.8652,3.4703,0.8633,4.6197-0.002,1.9043.1982,3.7973,0.2949,5.6977a13.17573,13.17573,0,0,1-1.5967.0728C94.6299,21.3359,92.4883,20.9946,90.4346,21.4268Z" transform="translate(0.00014 -0.00009)"/><path class="cls-1" d="M30.7783,10.3696a2.9952,2.9952,0,0,0,1.40141-.497c0.082-.0684.16209-0.1377,0.24419-0.2061a1.1136,1.1136,0,0,0,.6904-1.2905,7.31742,7.31742,0,0,1-.395-3.2407c0.0063-.90821-0.9141-1.18221-1.6895-1.1143-0.686.0605-2.05809,0.5513-2.0635,1.4429a15.11008,15.11008,0,0,0,.1036,2.8403,2.12067,2.12067,0,0,0-.0987.33589,0.65415,0.65415,0,0,0,.1353.55961c0,0.0425.0019,0.085,0.0019,0.1275,0.0044,0.10589.0098,0.2124,0.0137,0.3178a0.85707,0.85707,0,0,0,.4072.503A2.05938,2.05938,0,0,0,30.7783,10.3696Z" transform="translate(0.00014 -0.00009)"/></g></svg>