<svg id="Layer_1" data-name="Layer 1" xmlns="http://www.w3.org/2000/svg" viewBox="0 0 101.61465 34.0562"><defs><style>.cls-1{fill:#262424;}</style></defs><title>logo-3</title><path class="cls-1" d="M19.1348,21.4952c-0.08259-2.6827-.5098-5.3472-0.4751-8.0347,0.0278-2.1743.3891-4.4102-.3599-6.4946,0.0469-.2369.0962-0.4732,0.1401-0.711,0.1934-1.0449-3.2705-.4922-3.8134.4639a0.82371,0.82371,0,0,0-.3746.9565c0.0367,0.0865.0694,0.1739,0.1016,0.2608a78.195,78.195,0,0,1-2.6211,9.4121c-0.4023,1.188-.88819,2.3486-1.2978,3.5332a35.66466,35.66466,0,0,1-1.6431-3.3775C7.4184,14.0708,6.1797,10.6021,4.5049,7.2984,4.6948,5.7696,1.3013,5.9297.6323,7.3296A8.64428,8.64428,0,0,0,.1938,12.544a45.24074,45.24074,0,0,1,.3775,6.1113c0.0473,3.9761.3584,7.9434,0.4175,11.919a1.00335,1.00335,0,0,0-.0909,1.375,3.07558,3.07558,0,0,0,.5708.5488c0.9043,0.7236,3.50051.1074,3.4956-1.2715-0.01409-4.1226-.3115-8.2378-0.4204-12.3579-0.01069-.4038-0.0175-0.8071-0.0239-1.2105,0.0571,0.1451.1138,0.2896,0.1714,0.4341a33.804,33.804,0,0,0,2.1851,4.6538,21.4577,21.4577,0,0,1,1.8032,4.6768,0.77142,0.77142,0,0,0-.2329.708,0.3085,0.3085,0,0,0,.2509.3603c0.6387,0.5479,1.8409.2745,2.5093-.0068a6.07121,6.07121,0,0,0,.82621-0.4238,1.21018,1.21018,0,0,0,.729-1.1587c-0.02981-.0928-0.05811-0.1856-0.08691-0.2788a24.34182,24.34182,0,0,0,.9653-3.9297,24.90792,24.90792,0,0,1,1.2949-4.1333c0.0523,0.6191.1065,1.2378,0.1558,1.8555,0.2041,2.5537.0332,5.0717,0.0073,7.6264a11.703,11.703,0,0,0,.2188,2.461,10.55178,10.55178,0,0,1,.2812,1.8867,0.77561,0.77561,0,0,0,.3853,1.4365,3.3208,3.3208,0,0,0,2.7695-.7422c1.1982-1.1064.63181-2.8447,0.36081-4.2412C18.6606,26.501,19.208,23.8789,19.1348,21.4952Z" transform="translate(0.00026 0.00015)"/><path class="cls-1" d="M27.499,22.1704c-0.0737-1.9882-.7651-3.8618-0.7744-5.8715a48.664,48.664,0,0,0-.1548-6.8863c-0.1059-.7251-4.0561.0996-3.917,1.0498a38.87364,38.87364,0,0,1,.1592,6.3536,39.16192,39.16192,0,0,0,.7305,5.9043c0.269,2.0542-.0845,4.1567.1494,6.2133,0.1094,0.9619.7505,2.7432,0.08931,3.5801-0.41991.5322,1.46879,0.3418,1.55329,0.3262a3.86345,3.86345,0,0,0,2.30371-1.0381c0.65329-.8281.19629-2.4258,0.05269-3.3574A54.61575,54.61575,0,0,1,27.499,22.1704Z" transform="translate(0.00026 0.00015)"/><path class="cls-1" d="M43.8281,18.8511c-2.062-2.7837-5.8891-.7803-8.561-1.54-1.377-.3916-1.3946-2.271-1.3916-3.396a35.21509,35.21509,0,0,0-.273-4.146,3.40387,3.40387,0,0,1,.7456-2.9038,4.37769,4.37769,0,0,1,.81011-0.3389,8.23416,8.23416,0,0,1,1.06739-.0928c1.5488-.0664,4.6128.232,4.019,2.4834-0.2661,1.0098,3.5962.4307,3.8775-.6367,1.2128-4.5976-7.2842-3.7143-9.6856-3.0776-2.2114.5859-4.6494,1.8447-4.7764,4.3969-0.0605,1.2193.273,2.3794,0.3252,3.5874,0.0606,1.3902-.1977,2.7764.2886,4.1177,1.082,2.9824,5.52,1.5762,7.7778,1.7451,3.8453,0.2872,2.6968,5.4688,2.7476,7.8833,0.0273,1.2876,1.1812,3.4292.21091,4.5074-0.59521.6621-1.98241,0.6992-2.792,0.7675-0.81341.0684-2.20061,0.3125-2.74211-.4609-0.9932-1.418.0908-3.7993-.1206-5.4248-0.1207-.9243-4.066-0.0952-3.917,1.0498,0.3422,2.627-1.3995,6.1445,2.4018,6.5957a18.091,18.091,0,0,0,7.5-.9277,8.84985,8.84985,0,0,0,3.2432-1.793c1.0346-.9414.6943-2.3476,0.4165-3.5474C44.32421,24.7818,45.7324,21.4214,43.8281,18.8511Z" transform="translate(0.00026 0.00015)"/><path class="cls-1" d="M61.1553,18.6621c-0.1216-3.7773-.6905-7.5131-0.7056-11.2968-0.0083-1.9712-3.9634-1.3052-3.957.3427,0.0151,3.608.49651,7.1665,0.6821,10.7637,0.0039,0.0737.0083,0.147,0.0127,0.2207-1.9492-.0176-3.8989.1773-5.8526,0.2461,0.2012-4.6333-.6113-9.227-0.4345-13.8574,0.0219-.5816-3.8736-0.0899-3.917,1.0493-0.1709,4.4746.5869,8.915,0.4526,13.3916-0.0639,2.1358-.2446,4.2642-0.2593,6.4019a21.7239,21.7239,0,0,0,.3287,3.2627,8.32086,8.32086,0,0,1,.1816,3.3183c-0.23679.7725,3.5605,0.2901,3.8623-.6943,0.54391-1.7783-.2222-4.0386-0.4053-5.8389a31.04,31.04,0,0,1,.083-5.248,29.72925,29.72925,0,0,1,6.0801-.0117q0.13485,2.0676.3223,4.1342c0.1054,1.1573.1792,2.3135,0.1963,3.4751a10.61958,10.61958,0,0,1-.2207,3.461c-0.773,2.0566,3.1499,1.8886,3.7226.3642,0.7031-1.8701.5025-4.1987,0.3828-6.1636C61.5615,23.5396,61.2334,21.1094,61.1553,18.6621Z" transform="translate(0.00026 0.00015)"/><path class="cls-1" d="M78.0869,23.1363a73.73347,73.73347,0,0,0-3.6162-7.7974c1.001-1.9487,2.0176-3.8984,2.9316-5.8882,0.8311-1.8076,1.4463-3.8188,3.0796-5.0923,0.5742-.4472.55031-0.8955-0.2549-0.9511a4.44013,4.44013,0,0,0-2.7695.7422A10.73974,10.73974,0,0,0,74.2568,8.417c-0.93159,2.0508-1.8965,4.0635-2.91359,6.0752q-0.11131.22125-.22361,0.4434a1.14484,1.14484,0,0,0-.6387,1.2661c-0.7915,1.5635-1.5996,3.1167-2.499,4.6103-0.2988-5.5336-.9546-11.0605-1.1504-16.6-0.0449-1.2696-3.9712-.4795-3.917,1.0493,0.24271,6.8676,1.2188,13.7192,1.2862,20.5869-0.0161.0166-.0313,0.0342-0.0474,0.0508-0.3013.3081-.1899,0.4936,0.0513,0.6015,0.0019,1.7505-.0586,3.5015-0.209,5.2544-0.4722.7451,0.4629,1.1387,1.0845,1.1387h0.0962c0.7392,0,2.62591-.3496,2.7182-1.3643,0.1909-2.0996.251-4.1963,0.232-6.291a31.35645,31.35645,0,0,0,4.0551-5.6347,29.36288,29.36288,0,0,1,1.9888,4.582c0.86081,2.7407,2.2993,5.2607,3.1309,8.0137,0.5444,1.8056,4.4565.7382,3.91691-1.0489C80.3877,28.3985,79.0127,25.8545,78.0869,23.1363Z" transform="translate(0.00026 0.00015)"/><path class="cls-1" d="M101.5903,18.5015c-0.2099-.8315-1.37209-0.8491-2.2715-0.77-0.0117-.3355-0.0195-0.6714-0.0361-1.0064-0.125-2.6611-.165-5.3794-0.3916-8.0317-0.209-2.4575-1.585-3.3374-3.9717-3.2466A24.27627,24.27627,0,0,0,87.437,6.8501a6.99488,6.99488,0,0,0-4.5586,5.6812c-0.5493,3.0137.2397,6.2187,0.3731,9.2461,0.1542,3.5029.0664,7.0137,0.0625,10.5185-0.0005.5733,3.916,0.0313,3.9169-1.0488,0.003-2.7764.0425-5.5513,0-8.3267-0.01269-.8183-0.0512-1.6323-0.102-2.4438,1.3686-.5933,3.687.0122,5.05031,0.1411a15.28911,15.28911,0,0,0,3.24409-.2915c0.0205,2.312.1074,4.6348,0.2022,6.9443,0.0488,1.1836.4765,3.5303-.3535,4.5108-0.4366.5156,1.4804,0.3428,1.5546,0.3301a3.95456,3.95456,0,0,0,2.3028-1.0411c0.9492-1.1201.456-3.7895,0.4013-5.1264-0.0781-1.9102-.10149-3.8237-0.1406-5.7368C100.5425,20.0577,101.80521,19.3511,101.5903,18.5015Zm-14.6186-.1509c-0.1031-1.2451-.2168-2.4902-0.3028-3.7431-0.1596-2.3306.1172-5.5826,2.2896-6.9986a7.1375,7.1375,0,0,1,2.3545-.438,3.67241,3.67241,0,0,1,2.8291.19c1.2099,0.8022.91211,3.6567,0.91111,4.8691-0.00291,2.0054.207,4.0015,0.30959,6.0034a13.67525,13.67525,0,0,1-1.68259.0762C91.394,18.2559,89.13621,17.896,86.9717,18.3506Z" transform="translate(0.00026 0.00015)"/><path class="cls-1" d="M24.1079,6.7002a3.15644,3.15644,0,0,0,1.477-.5244c0.0855-.0722.1709-0.144,0.2564-0.2163a1.173,1.173,0,0,0,.728-1.3613,7.725,7.725,0,0,1-.4155-3.4141C26.1601,0.2266,25.1909-.0615,24.373.0103c-0.7226.0635-2.1684,0.5806-2.17479,1.52a16.0579,16.0579,0,0,0,.10889,2.9922,2.55948,2.55948,0,0,0-.104.3555,0.69449,0.69449,0,0,0,.14211.5898c0.00049,0.0449.00239,0.0894,0.00239,0.1343L22.3623,5.937a0.9,0.9,0,0,0,.4287.5298A2.18333,2.18333,0,0,0,24.1079,6.7002Z" transform="translate(0.00026 0.00015)"/></svg>