<svg id="Layer_2" data-name="Layer 2" xmlns="http://www.w3.org/2000/svg" viewBox="0 0 85.5893 35.03496"><title>logo-1</title><path d="M4.1801,26.3008c-0.0136-3.4716-.26169-6.93751-0.3564-10.4091-0.0078-.3399-0.0147-0.6807-0.0195-1.0206,0.0488,0.1221.0966,0.24319,0.1455,0.3643a28.70783,28.70783,0,0,0,1.8388,3.91989A18.05173,18.05173,0,0,1,7.309,23.0948a0.64758,0.64758,0,0,0-.1962.5957,0.2631,0.2631,0,0,0,.2119.3056,2.26,2.26,0,0,0,2.1133-.00781,5.3048,5.3048,0,0,0,.6962-0.35539,1.02113,1.02113,0,0,0,.6133-0.97661c-0.0244-.07909-0.0488-0.15719-0.0722-0.23539a20.40579,20.40579,0,0,0,.8134-3.30761A20.97313,20.97313,0,0,1,12.5805,15.628c0.043,0.5205.08791,1.0439,0.12891,1.5664,0.17389,2.1474.02839,4.2695,0.00789,6.42189a9.93337,9.93337,0,0,0,.1835,2.07521,8.586,8.586,0,0,1,.2354,1.58779,0.65367,0.65367,0,0,0,.32621,1.211,2.79541,2.79541,0,0,0,2.333-.625c1.00879-.93359.53119-2.39649,0.30369-3.57229-0.3848-1.9726.0771-4.1806,0.0166-6.1894-0.06929-2.2598-.4297-4.503-0.3994-6.7686,0.0234-1.831.32811-3.7139-.3028-5.47071,0.0391-.20019.0801-0.39839,0.1172-0.59959,0.1631-.8789-2.7539-0.4141-3.2119.39159a0.68795,0.68795,0,0,0-.3135.80571c0.0313,0.07129.0567,0.1464,0.084,0.2187a65.70994,65.70994,0,0,1-2.207,7.9297c-0.33889,1.001-.7481,1.9766-1.0947,2.9775a30.02013,30.02013,0,0,1-1.3838-2.84661C6.2485,11.8506,5.2046,8.9278,3.79341,6.1456,3.9536,4.8565,1.0957,4.9922.5322,6.1719a7.2878,7.2878,0,0,0-.3691,4.3926A38.12376,38.12376,0,0,1,.4829,15.712c0.0386,3.3466.3003,6.6894,0.3511,10.04a0.84692,0.84692,0,0,0-.0777,1.1582,2.5098,2.5098,0,0,0,.4824.46C1.9956,27.9815,4.185,27.4629,4.1801,26.3008Z" transform="translate(0.00008 0.00026)"/><path d="M22.37641,7.9288c-0.08881-.6133-3.416.0839-3.29981,0.8847a32.96326,32.96326,0,0,1,.13581,5.3516,32.81872,32.81872,0,0,0,.61519,4.9707c0.2256,1.7324-.0713,3.5019.126,5.2353,0.08981,0.8116.63181,2.3116,0.0742,3.0176-0.3545.4473,1.2373,0.2852,1.30961,0.2754a3.259,3.259,0,0,0,1.93839-.875c0.5518-.6973.1651-2.042,0.045-2.8271a46.29482,46.29482,0,0,1-.1621-5.2862c-0.0606-1.6758-.6436-3.2539-0.6504-4.9463A40.91613,40.91613,0,0,0,22.37641,7.9288Z" transform="translate(0.00008 0.00026)"/><path d="M25.4995,14.57429c0.9101,2.51361,4.6484,1.32711,6.5508,1.47071,3.2382,0.2392,2.2724,4.6074,2.3134,6.6406,0.0225,1.085.9952,2.88869,0.17871,3.7978a3.852,3.852,0,0,1-2.35151.6465c-0.68649.0567-1.85349,0.2608-2.31149-.38961-0.836-1.19439.07709-3.20019-.10161-4.56839-0.1025-.7802-3.4238-0.0801-3.2988.8838,0.29,2.211-1.1787,5.1748,2.02241,5.5557a15.19924,15.19924,0,0,0,6.31739-.7832,7.43782,7.43782,0,0,0,2.7315-1.5088c0.872-.794.5849-1.9795,0.3515-2.9873-0.5693-2.458.6162-5.2891-.9873-7.4541-1.7383-2.34471-4.9619-.6572-7.2119-1.2969-1.1611-.3301-1.1748-1.9111-1.1699-2.8603a29.97881,29.97881,0,0,0-.2315-3.4913,2.87076,2.87076,0,0,1,.628-2.44721,3.772,3.772,0,0,1,.6806-0.28619A6.90728,6.90728,0,0,1,30.5102,5.42c1.3037-.05571,3.8848.19529,3.3858,2.0918-0.22559.8506,3.0283,0.3632,3.2656-.5371,1.0205-3.8741-6.1377-3.1309-8.15919-2.5928-1.86331.4941-3.916,1.5547-4.02341,3.7041-0.0518,1.02729.2295,2.0058,0.27441,3.0224A11.23222,11.23222,0,0,0,25.4995,14.57429Z" transform="translate(0.00008 0.00026)"/><path d="M39.9546,16.4444c-0.0528,1.7988-.2081,3.5928-0.2198,5.3926a18.31145,18.31145,0,0,0,.2784,2.75,7.02291,7.02291,0,0,1,.1523,2.7959c-0.1982.64639,3,.2421,3.25391-0.587,0.458-1.497-.18751-3.4023-0.34081-4.9179a25.948,25.948,0,0,1,.0722-4.4199,25.11862,25.11862,0,0,1,5.1192-.01081c0.0762,1.16311.164,2.32131,0.27241,3.48341,0.08789,0.97559.15139,1.9483,0.16409,2.9287a8.89769,8.89769,0,0,1-.1846,2.9131c-0.6513,1.7315,2.6553,1.5899,3.1358.3076a13.11972,13.11972,0,0,0,.3232-5.1943c-0.1299-2.0586-.4043-4.10651-0.4697-6.166-0.1016-3.1826-.5801-6.3291-0.59379-9.5156-0.00681-1.6612-3.33781-1.0987-3.331.288,0.01169,3.04009.417,6.03709,0.57129,9.0684,0.0049,0.0605.0078,0.1211,0.00971,0.1846-1.63961-.0157-3.28121.1494-4.92871,0.207,0.1709-3.9023-.5146-7.7715-0.3642-11.67191,0.0195-.49219-3.2637-0.07709-3.2998.88281C39.4292,8.9346,40.0678,12.6749,39.9546,16.4444Z" transform="translate(0.00008 0.00026)"/><path d="M54.0346,21.8155c-0.2539.25879-.1591,0.414,0.045,0.50579,0.0009,1.47371-.0498,2.94931-0.1778,4.42391-0.3965.6298,0.3897,0.9599,0.9121,0.9599H54.896c0.622,0,2.2089-.2929,2.289-1.1484,0.1621-1.7686.211-3.5352,0.1963-5.2988a26.54716,26.54716,0,0,0,3.416-4.7481,24.99742,24.99742,0,0,1,1.6758,3.8613c0.7246,2.3096,1.9375,4.4307,2.6367,6.75,0.459,1.5215,3.7539.6211,3.2979-.8847-0.7012-2.3194-1.8565-4.4619-2.6377-6.75a62.132,62.132,0,0,0-3.0459-6.5684c0.8447-1.6406,1.6992-3.2832,2.4697-4.9599,0.6983-1.5245,1.2188-3.2159,2.5938-4.2891,0.4834-.376.46381-0.7549-0.2159-0.8008a3.71489,3.71489,0,0,0-2.3339.625,9.04217,9.04217,0,0,0-2.69439,3.5947c-0.78421,1.7256-1.59761,3.4209-2.45511,5.1172-0.0605.1231-.125,0.2481-0.1875,0.3731a0.96652,0.96652,0,0,0-.539,1.0644c-0.666,1.3164-1.3467,2.627-2.1045,3.8848-0.252-4.66111-.8027-9.3174-0.9688-13.9834-0.03609-1.0684-3.3447-.4033-3.2968.8857,0.2041,5.7852,1.0244,11.5567,1.083,17.3399C54.062,21.7862,54.0473,21.8018,54.0346,21.8155Z" transform="translate(0.00008 0.00026)"/><path d="M85.5688,15.584c-0.1767-.7011-1.1553-0.7158-1.914-0.6484-0.0098-.28131-0.0166-0.5664-0.0293-0.8486-0.1065-2.2412-.1387-4.5303-0.32909-6.76471C83.1206,5.253,81.96141,4.5108,79.9507,4.5879a20.39425,20.39425,0,0,0-6.3018,1.1827,5.8849,5.8849,0,0,0-3.8408,4.7841c-0.4639,2.5391.2011,5.2383,0.3134,7.7891,0.12991,2.9512.0557,5.9092,0.0538,8.8594,0,0.4843,3.2968.0273,3.2968-.8838,0.0039-2.3379.0371-4.6758,0-7.0137-0.01069-.6885-0.0429-1.374-0.0849-2.0566,1.15521-.4991,3.1064.0097,4.2549,0.1181a12.7792,12.7792,0,0,0,2.7324-.2441c0.0166,1.9463.0898,3.9053,0.16991,5.8506,0.042,0.9971.40229,2.97459-.29691,3.7988-0.36809.4356,1.249,0.2881,1.3096,0.2803a3.33349,3.33349,0,0,0,1.9394-.877c0.79991-.9424.3838-3.1924,0.33791-4.3164-0.06541-1.6113-.08591-3.2226-0.12111-4.834C84.686,16.8946,85.7505,16.2989,85.5688,15.584Zm-6.6621-.1621a24.75719,24.75719,0,0,0-5.6514.0362c-0.08589-1.05081-.1826-2.0977-0.2548-3.1543-0.1338-1.962.0986-4.7022,1.9277-5.89551a6.08286,6.08286,0,0,1,1.9844-.36819,3.09335,3.09335,0,0,1,2.38381.1601c1.01749,0.6758.76849,3.08009,0.76559,4.1006-0.002,1.69049.1767,3.3701,0.2617,5.0586A11.92469,11.92469,0,0,1,78.9067,15.4219Z" transform="translate(0.00008 0.00026)"/><path d="M18.7007,4.1055a0.57674,0.57674,0,0,0,.1191.4971c0,0.0391.0019,0.0752,0.0019,0.1142,0.004,0.0938.0088,0.18749,0.01271,0.2823a0.76449,0.76449,0,0,0,.36229.4463,1.82769,1.82769,0,0,0,1.1084.1963,2.67769,2.67769,0,0,0,1.2452-.4395c0.0722-.0615.1425-0.1221,0.2158-0.1826a0.98615,0.98615,0,0,0,.61231-1.1465A6.47836,6.47836,0,0,1,22.0288.9981a1.179,1.179,0,0,0-1.501-.9893c-0.60839.0537-1.8271,0.4893-1.8311,1.2793a13.26884,13.26884,0,0,0,.0918,2.5225A1.73109,1.73109,0,0,0,18.7007,4.1055Z" transform="translate(0.00008 0.00026)"/><path d="M80.2778,33.2891a19.74426,19.74426,0,0,0-4.8506-.7871c-1.6025-.1699-3.2451-0.4102-4.88379-0.5625-1.63671.0527-3.30951,0.0273-4.97171,0.1289l-4.8798.2676c-6.4873.289-12.9991,0.2529-19.5166,0.1074-6.5166-.123-13.045-0.4766-19.62989-0.45311-3.28811.00781-6.56551,0.09861-9.86231,0.25-1.6319.28321-3.2393,0.501-4.9043,0.91311a30.90726,30.90726,0,0,1-4.794,1.0478,23.16069,23.16069,0,0,0,4.9619.2969c1.5791,0.0098,3.2432.1426,4.8721,0.2314,3.2285-.1718,6.4873-0.2461,9.7334-0.2578,6.4873-.02441,13.0147.3291,19.5654,0.4512,6.5479,0.1465,13.1143.1855,19.6827-.1104l4.9072-.2685c1.6025-.0713,3.1982-0.127,4.8291-0.0674,1.6279-.1484,3.2529-0.3301,4.918-0.5322a22.65612,22.65612,0,0,1,4.8544-.5088l0.0743,0.0059,0.0058-.0547a3.32487,3.32487,0,0,0-.04-0.47951C80.3139,33.0352,80.309,33.1719,80.2778,33.2891Z" transform="translate(0.00008 0.00026)"/></svg>