<svg id="Laag_1" data-name="Laag 1" xmlns="http://www.w3.org/2000/svg" viewBox="0 0 457.62399 349.49757"><defs><style>.cls-1{fill:#63d1bb;stroke:#fff;stroke-miterlimit:10;stroke-width:25px;}.cls-2{fill:#fff;}</style></defs><title>play</title><path class="cls-1" d="M440.70609,82.4922s-4.18559-31.857-17.2071-45.8091c-16.5097-18.3696-34.8799-18.4863-43.3672-19.53221C319.55759,12.5,228.75389,12.5,228.75389,12.5H228.5215s-90.80371,0-151.3779,4.65089C68.6563,18.1968,50.2861,18.3135,33.7764,36.6831,20.8711,50.7514,16.5693,82.4922,16.5693,82.4922S12.5,119.8135,12.5,157.1343v34.9961a747.05738,747.05738,0,0,0,4.3018,74.64249s4.1855,31.85751,17.207,45.80861c16.5098,18.3701,38.0195,17.7891,47.6689,19.7656,34.6475,3.4874,147.0762,4.6504,147.0762,4.6504s90.9199-.1162,151.4941-4.76661c8.4874-1.04679,26.85751-1.163,43.3672-19.53319,12.90531-13.9511,17.2071-45.8086,17.2071-45.8086a747.0724,747.0724,0,0,0,4.3017-74.6425V157.2505C445.00779,119.8135,440.70609,82.4922,440.70609,82.4922Z"/><polygon class="cls-2" points="174.69 93.537 174.69 255.844 309.907 174.691 174.69 93.537"/></svg>