<svg id="Layer_1" data-name="Layer 1" xmlns="http://www.w3.org/2000/svg" viewBox="0 0 34.37273 34.37299"><defs><style>.cls-1{fill:#262424;}</style></defs><title>thread</title><path class="cls-1" d="M0.28627,14.06893a17.24511,17.24511,0,0,0,.0079,6.3008l4.1206-3.21Z"/><path class="cls-1" d="M24.40347,1.58553a17.20944,17.20944,0,0,0-15.2539.4067l7.5132,5.625Z"/><path class="cls-1" d="M33.90157,13.17493l-4.8106,3.748,4.9356,3.6948A17.24742,17.24742,0,0,0,33.90157,13.17493Z"/><path class="cls-1" d="M9.20917,32.41363a17.21269,17.21269,0,0,0,15.7305.1133l-8.0962-6.0615Z"/><path class="cls-1" d="M7.91427,14.43323L1.68137,9.76673a17.15343,17.15343,0,0,0-.82471,2.0561l5.3076,3.9736Z"/><path class="cls-1" d="M18.593,25.10213l8.3359,6.2422c0.2774-.1914.5508-0.3906,0.8203-0.6006q0.4776-.372.92-0.7705l-8.3262-6.2344Z"/><path class="cls-1" d="M11.41327,11.70713l-7.4111-5.5493a17.09587,17.09587,0,0,0-1.2691,1.7231l6.9307,5.189Z"/><path class="cls-1" d="M22.093,22.37553l8.0918,6.0586a17.09039,17.09039,0,0,0,1.2969-1.7011l-7.6387-5.7207Z"/><path class="cls-1" d="M14.91277,8.98053l-7.7163-5.7773q-0.28935.20655-.5732,0.4262-0.594.4629-1.1358,0.9673l7.6758,5.7471Z"/><path class="cls-1" d="M25.592,19.649l6.9717,5.2207a17.17677,17.17677,0,0,0,.8555-2.0332l-6.0772-4.5503Z"/><path class="cls-1" d="M26.44837,2.70563L0.88007,22.62653a17.10735,17.10735,0,0,0,.83931,2.0586L28.23947,4.02253A17.0417,17.0417,0,0,0,26.44837,2.70563Z"/><path class="cls-1" d="M30.74337,6.62363q-0.45121-.5787-0.93951-1.1065L2.78627,26.56693q0.3933,0.6036.8428,1.1827c0.1421,0.1826.2876,0.3593,0.4356,0.5341l27.0908-21.1074C31.02167,6.99033,30.88587,6.80573,30.74337,6.62363Z"/><path class="cls-1" d="M32.29807,8.99863L5.552,29.83843a17.12054,17.12054,0,0,0,1.7075,1.3819l25.9624-20.2281A17.12406,17.12406,0,0,0,32.29807,8.99863Z"/></svg>