<svg id="Layer_1" data-name="Layer 1" xmlns="http://www.w3.org/2000/svg" viewBox="0 0 23.49373 20.16768"><defs><style>.cls-1{fill:#231f20;}</style></defs><title>twitter</title><g id="twitter"><path class="cls-1" d="M23.4532,4.084a2.16471,2.16471,0,0,0-1.4073-.3711H20.9336a8.342,8.342,0,0,1,.5196-0.96341,5.41748,5.41748,0,0,0,.2226-1.25979c0.1289-.1665.1758-0.4165,0.2959-0.5927A0.59685,0.59685,0,0,0,22.0459.23049C21.99511,0.0097,21.751-.0181,21.4532.0083a0.51048,0.51048,0,0,0-.2217.1479c-0.4483.4331-.7783,1.0137-1.2608,1.4077a0.23374,0.23374,0,0,1-.0742,0c-0.0869.0049-.0332,0.0464-0.0752,0.0743-0.1465.0976-.2568,0.15229-0.3691,0.2226a3.00944,3.00944,0,0,1-.8906.5186A6.07526,6.07526,0,0,0,16.71,2.0093a6.43731,6.43731,0,0,0-3.0381.7407,7.3192,7.3192,0,0,0-2.1494,1.6304,8.053,8.053,0,0,0-.3701.7407c-0.0049.04539-.0117,0.0879-0.07329,0.0742a1.22136,1.22136,0,0,1-.07421.5186c-0.001.1328,0.19921,0.4311,0,.5195a7.15078,7.15078,0,0,1-2.1494-.96391A10.14924,10.14924,0,0,1,6.7813,4.1587,6.04877,6.04877,0,0,1,5.003,2.8247a3.58442,3.58442,0,0,1-.6675-0.8901C3.9566,1.77049,4.1602,1.0224,3.5948,1.0459,3.2793,1.0029,3.25,1.2451,3.1504,1.416a1.63154,1.63154,0,0,0-.3711.5186c-0.0039.04589-.0107,0.0883-0.07419,0.0751A17.76514,17.76514,0,0,0,2.1866,5.26949,3.06645,3.06645,0,0,0,2.7793,6.3071a1.11293,1.11293,0,0,0-.8896.5191A3.71733,3.71733,0,0,0,2.6314,9.123a2.93668,2.93668,0,0,0,.5928.9629,0.96469,0.96469,0,0,0,.2958.4453,2.21374,2.21374,0,0,0,.149.2227c-0.0401.1055,0.2885,0.1797,0.0732,0.2207a2.751,2.751,0,0,0-1.2593.3711,1.92416,1.92416,0,0,0,0,1.1113,4.452,4.452,0,0,1,.2964.5186,18.30964,18.30964,0,0,0,1.6309,1.1123,15.22691,15.22691,0,0,0,1.852.3701,1.43931,1.43931,0,0,1-.5927.7412,19.22878,19.22878,0,0,1-2.7422.7402c-0.55519.03809-.9556,0.2305-1.5557,0.2227-0.33249.1269-.85349,0.0752-1.1118,0.2226a0.80132,0.80132,0,0,0-.2222.22079,0.71567,0.71567,0,0,0,.4439.88961,0.45338,0.45338,0,0,0,.3711.3711,0.80135,0.80135,0,0,0,.4448.3701,10.57762,10.57762,0,0,0,1.9268,1.1123c0.8295,0.1826,1.6484.376,2.5195,0.5186,0.896,0.1162,1.9009.124,2.8159,0.2217H9.5225a9.90907,9.90907,0,0,0,1.8525.0742,0.81181,0.81181,0,0,1,.5186-0.0742,9.27853,9.27853,0,0,0,1.6308-.7403c0.5743-.2412.9893-0.6416,1.55671-0.8896a10.02659,10.02659,0,0,0,2.51849-2.3721,1.65946,1.65946,0,0,0,.4454-0.7402,3.33628,3.33628,0,0,0,.5927-0.667,9.9209,9.9209,0,0,0,1.0371-1.40821c0.3194-.49609.5762-1.05369,0.8897-1.55569-0.0098-.40531.30561-0.4844,0.2959-0.8896,0.1933-.2256.17671-0.6622,0.3711-0.88871a1.38,1.38,0,0,1,.0742-0.59379,12.14789,12.14789,0,0,0-.2969-3.40721,5.7446,5.7446,0,0,0,1.6309-.59329A1.029,1.029,0,0,0,23.4532,4.084ZM20.045,8.1592a4.7303,4.7303,0,0,1-1.0381,2.0009,8.655,8.655,0,0,1-.0733.8887,4.30794,4.30794,0,0,0-.3711,1.0371c-0.2031.26659-.332,0.6065-0.5185,0.8897-0.3662.5478-.7774,1.0508-1.1856,1.5566-0.3779.5596-.9121,0.9649-1.334,1.4815-0.4199.4931-.94229,0.8847-1.4072,1.3339a4.95746,4.95746,0,0,0-1.2597.667,4.99686,4.99686,0,0,0-.667.29589c-0.1768.14551-.4991,0.14461-0.668,0.29691a23.99567,23.99567,0,0,1-3.5552.1484,26.3282,26.3282,0,0,1-3.039-.3711,11.7864,11.7864,0,0,1-2.2969-1.0371,1.57648,1.57648,0,0,1,.9634-0.2216,2.94865,2.94865,0,0,1,.4438-0.14951,3.466,3.466,0,0,0,.51951-0.07319,9.525,9.525,0,0,0,1.70459-.59281,8.83844,8.83844,0,0,0,.6665-0.59269,0.73744,0.73744,0,0,1,.2217-0.4444,1.98166,1.98166,0,0,0,.1484-0.8154,1.201,1.201,0,0,0,.2964-0.667,0.59738,0.59738,0,0,0-.2964-0.3711,1.47854,1.47854,0,0,0-.4443-0.2217,1.36869,1.36869,0,0,1-.5928-0.0752c-0.1538-.0429-0.4868.0918-0.5185-0.0732a3.60916,3.60916,0,0,1-1.853-.7402,4.47776,4.47776,0,0,0,1.3335-.7422c0.5161-.0762,1.0576-0.12891,1.1123-0.666,0-.7168-0.771-0.6612-1.3335-0.8155A12.12106,12.12106,0,0,1,3.2242,7.5664a2.955,2.955,0,0,0,.7407-0.4443,0.60486,0.60486,0,0,0,.667-0.51961A0.94139,0.94139,0,0,0,4.03911,5.7876a3.50035,3.50035,0,0,1-.667-0.7407A18.465,18.465,0,0,1,3.4463,2.6753c0.063-.0137.0703,0.0288,0.0737,0.07419C3.7466,3.1909,4.07911,3.5244,4.3355,3.935A8.866,8.866,0,0,0,5.8916,5.0469C6.3438,5.45949,7,5.668,7.4483,6.08449a16.40666,16.40666,0,0,1,1.7041.88911,4.29392,4.29392,0,0,0,2.001.5928c0.1982-.0977.3935-0.1992,0.59271-0.29691,0.25779-.456-0.05861-1.07859.14749-1.63039a4.35474,4.35474,0,0,1,1.2598-1.4814,7.81373,7.81373,0,0,0,.8154-0.519,4.81978,4.81978,0,0,0,.9638-0.3706,6.26108,6.26108,0,0,0,1.0372-.148h1.2597a7.02367,7.02367,0,0,0,.7403.148,1.82736,1.82736,0,0,0,.666.3706A4.474,4.474,0,0,1,20.045,6.6772,10.22763,10.22763,0,0,0,20.045,8.1592Zm0.2959-5.6319a1.10179,1.10179,0,0,1-.59279.8155,1.992,1.992,0,0,0-.14751-0.2222c-0.0117-.2095.209-0.1856,0.2959-0.2964a1.92425,1.92425,0,0,1,.4444-0.2969C20.334,2.438,20.4492,2.4814,20.3409,2.5273ZM14.8575,5.5654a1.358,1.358,0,0,0,.5185.37109,0.70876,0.70876,0,0,0,.5938.37011,1.99782,1.99782,0,0,0,.3701-0.22211,0.94462,0.94462,0,0,0,.2959-0.29689,2.35729,2.35729,0,0,0-.3701-1.3335A0.93179,0.93179,0,0,0,14.8575,5.5654Z" transform="translate(-0.00018 -0.00007)"/></g></svg>